<?xml version="1.0" encoding="UTF-8" standalone="no"?>
<!DOCTYPE svg PUBLIC "-//W3C//DTD SVG 1.1//EN" "http://www.w3.org/Graphics/SVG/1.1/DTD/svg11.dtd">
<svg width="100%" height="100%" viewBox="0 0 2767 3305" version="1.1" xmlns="http://www.w3.org/2000/svg" xmlns:xlink="http://www.w3.org/1999/xlink" xml:space="preserve" xmlns:serif="http://www.serif.com/" style="fill-rule:evenodd;clip-rule:evenodd;stroke-linejoin:round;stroke-miterlimit:2;">
    <g>
        <path d="M117.495,2417.6L1381.37,3178.64L2645.27,2417.6L2645.27,887.484L1381.37,126.459L117.495,887.484L117.495,2417.6ZM1381.37,3305C1370.62,3305 1359.86,3302.32 1351.8,3296.94L28.744,2498.26C12.617,2487.52 1.861,2468.68 1.861,2449.85L1.861,855.23C1.861,833.706 12.617,814.887 28.744,804.131L1351.8,8.147C1370.62,-2.609 1392.13,-2.609 1410.96,8.147L2734,804.131C2750.12,814.887 2760.89,833.706 2760.89,855.23L2760.89,2449.88C2760.89,2471.39 2750.12,2490.22 2734,2498.29L1410.96,3294.26C1402.87,3302.32 1392.13,3305 1381.37,3305Z" fill="currentColor"/>
        <path d="M58.332,914.393C31.437,914.393 7.233,895.561 1.861,871.357C-6.201,839.09 12.617,809.502 44.884,801.439L1367.94,478.743C1400.19,470.68 1429.79,489.498 1437.85,521.779C1445.92,554.046 1427.09,583.634 1394.82,591.697L71.78,914.393C69.088,911.701 63.703,914.393 58.332,914.393Z" fill="currentColor"/>
        <path d="M2704.42,914.393C2699.04,914.393 2696.36,914.393 2690.97,911.701L1367.92,589.005C1335.66,580.941 1316.84,548.662 1324.9,519.086C1332.96,489.498 1365.23,467.987 1394.82,476.051L2717.87,798.747C2750.12,806.81 2768.96,839.09 2760.89,868.665C2755.51,895.561 2731.32,914.393 2704.42,914.393Z" fill="currentColor"/>
        <path d="M2704.42,2506.32C2696.36,2506.32 2688.3,2503.64 2677.53,2500.97L2309.13,2318.11L450.947,2318.11L85.215,2500.97C55.64,2514.41 20.681,2503.64 7.233,2474.07C-6.214,2444.49 4.541,2409.54 34.128,2396.09L410.604,2207.84C418.667,2205.16 426.73,2202.49 437.486,2202.49L2325.26,2202.46C2333.32,2202.46 2344.09,2205.16 2352.15,2207.84L2734,2396.09C2763.57,2409.54 2774.34,2444.49 2760.89,2474.07C2747.44,2495.58 2725.93,2506.32 2704.42,2506.32Z" fill="currentColor"/>
        <path d="M437.486,2318.11C426.73,2318.11 418.667,2315.4 410.604,2310.04C383.708,2293.91 372.952,2258.93 386.4,2232.06L1332.98,502.947C1349.1,476.064 1384.06,465.308 1410.96,478.756C1437.85,494.883 1448.6,529.855 1435.15,556.738L488.585,2288.53C477.83,2307.34 456.318,2318.11 437.486,2318.11Z" fill="currentColor"/>
        <path d="M2322.55,2318.11C2301.04,2318.11 2282.23,2307.34 2271.46,2288.53L1330.27,559.417C1314.14,532.535 1324.9,494.883 1354.46,481.435C1381.36,465.308 1419,476.064 1432.44,505.639L2373.66,2234.74C2389.79,2261.64 2379.02,2299.27 2349.45,2312.72C2341.38,2318.11 2333.32,2318.11 2322.55,2318.11Z" fill="currentColor"/>
        <path d="M437.486,2318.11C413.295,2318.11 389.092,2301.98 381.016,2277.76L4.541,1040.77C-3.522,1011.19 12.604,978.914 42.192,968.171C71.767,960.095 104.047,976.235 114.79,1005.81L491.277,2242.8C499.341,2272.38 483.201,2304.66 453.626,2315.4C448.255,2318.11 442.871,2318.11 437.486,2318.11Z" fill="currentColor"/>
        <path d="M2322.55,2318.11C2317.19,2318.11 2311.81,2318.11 2306.42,2315.4C2276.85,2304.66 2258.02,2272.38 2268.78,2242.8L2650.63,1005.81C2661.4,976.235 2693.65,957.416 2723.23,968.171C2752.83,978.927 2771.64,1011.19 2760.89,1040.77L2379.02,2277.76C2370.96,2301.98 2349.45,2318.11 2322.55,2318.11Z" fill="currentColor"/>
        <path d="M1381.37,3305C1365.24,3305 1351.8,3299.64 1338.35,3286.19L394.463,2301.98C372.952,2277.76 372.952,2242.8 397.156,2218.61C421.359,2197.1 456.318,2197.1 480.522,2221.29L1424.41,3205.51C1445.92,3229.7 1445.92,3264.68 1421.7,3288.87C1410.96,3299.64 1397.51,3305 1381.37,3305Z" fill="currentColor"/>
        <path d="M1381.37,3305C1367.92,3305 1351.8,3299.64 1341.04,3288.87C1316.84,3267.36 1316.84,3229.72 1338.35,3205.51L2279.53,2221.29C2301.06,2197.1 2338.7,2197.1 2362.89,2218.61C2387.11,2240.12 2387.11,2277.76 2365.6,2301.98L1424.41,3286.19C1413.64,3299.64 1397.51,3305 1381.37,3305Z" fill="currentColor"/>
        <path d="M1381.37,589.005C1349.1,589.005 1322.22,562.109 1322.22,529.842L1322.22,59.246C1322.22,26.966 1349.1,0.084 1381.37,0.084C1413.64,0.084 1440.53,26.966 1440.53,59.246L1440.53,532.535C1440.53,562.109 1413.64,589.005 1381.37,589.005Z" fill="currentColor"/>
    </g>
</svg>
