<?xml version="1.0" encoding="utf-8" ?>
<svg xmlns="http://www.w3.org/2000/svg" xmlns:xlink="http://www.w3.org/1999/xlink" width="360" height="360">
	<path fill="#BAADAD" transform="scale(2.4 2.4)" d="M77.854 27.4419C76.7717 26.1994 76.4727 23.8793 74.9347 23.1726C74.3584 23.559 74.2833 23.9655 74.0217 24.589C73.2908 25.4935 72.9498 26.6937 72.1546 27.5049C69.6748 26.3031 61.8057 28.7729 58.9289 29.5003L59.0632 26.7764L59.2224 26.722Q62.0395 25.8022 64.9725 25.3775Q67.9054 24.9528 70.8677 25.0357C71.0611 21.1599 72.8111 17.0835 73.6049 13.2568C73.8855 11.9043 73.8949 8.66571 74.6384 7.75205C75.2715 8.16206 75.4125 8.87089 75.5665 9.58701C76.1526 12.3129 78.1522 23.4949 79.7251 24.8693C83.2755 25.1317 87.8088 25.3215 91.0136 26.9828C91.0881 27.793 91.3033 28.5407 91.5261 29.3191C88.475 28.7641 81.6524 27.0224 78.9509 27.0152C78.3496 27.0136 78.2625 27.0357 77.854 27.4419ZM75.1849 19.3923C74.5657 20.0297 74.1683 20.4589 73.9927 21.366C74.0496 21.9003 74.1427 22.3849 74.6021 22.7249C74.7699 22.849 74.9739 22.9285 75.1681 23.0008C75.6881 22.47 75.8863 21.7649 75.8956 21.0299C75.9025 20.4865 75.7856 19.8786 75.3589 19.5059C75.2767 19.4341 75.2682 19.4348 75.1849 19.3923Z"/>
	<path fill="#595F6A" transform="scale(2.4 2.4)" d="M59.0632 26.7764C58.63 27.2545 57.6797 29.3819 57.4224 29.4992C57.2346 29.3221 57.0712 29.0797 56.805 29.0845C56.3647 29.0925 55.915 29.3026 55.6184 29.6321C55.4198 29.8527 55.2742 30.1516 55.1435 30.4168C55.2082 30.8068 55.1963 30.9128 55.4956 31.1944C55.4843 31.2299 55.4725 31.2653 55.4617 31.301C54.9908 32.8548 55.7971 35.132 54.4634 36.3028L54.3484 36.3153L54.1527 35.9941L54.5132 36.2593L54.6212 36.1885L54.1509 35.9863C54.2103 34.9881 54.6013 33.183 53.8903 32.4164C53.8042 32.3236 53.7956 32.3226 53.7079 32.2592C53.791 30.8523 54.1526 29.4596 54.4493 28.0849C55.4947 26.7624 56.1941 25.1408 57.0876 23.7085C59.5473 19.7655 62.8157 15.8757 66.5961 13.1457C65.2342 16.4677 58.9892 23.6843 59.2224 26.722L59.0632 26.7764Z"/>
	<path fill="#595F6A" transform="scale(2.4 2.4)" d="M88.2789 20.4537C87.0177 18.5821 85.0865 16.6405 84.2266 14.5655C84.154 14.3901 83.9899 14.0752 84.0653 13.8974L84.2548 14.3736L84.6908 14.129C86.2532 15.5472 87.701 17.1351 89.1797 18.6423C89.0727 19.5589 88.9694 19.8129 88.2789 20.4537Z"/>
	<path fill="#52585E" transform="scale(2.4 2.4)" d="M89.1797 18.6423C91.3244 21.4263 94.4394 25.3735 95.9212 28.5038C95.9407 30.1812 96.1646 31.9514 96.7993 33.5178L97.2056 34.4711C97.1052 35.3714 96.8402 36.9173 97.2624 37.761L97.1497 38.5399C96.5992 38.4166 96.3989 38.4478 96.0937 37.9449C95.8792 37.5915 95.7622 37.1769 95.5874 36.8026C95.4573 38.3014 94.926 39.9012 93.9355 41.0625L94.001 38.5081C94.6836 37.7084 95.0335 36.7836 95.0102 35.7264C94.9569 33.3136 93.9009 30.8442 92.1605 29.192L91.7135 29.3683L91.5261 29.3191C91.3033 28.5407 91.0881 27.793 91.0136 26.9828C91.1873 25.349 89.0258 22.0364 88.2789 20.4537C88.9694 19.8129 89.0727 19.5589 89.1797 18.6423Z"/>
	<path fill="#8F87CF" transform="scale(2.4 2.4)" d="M75.1681 23.0008C74.9739 22.9285 74.7699 22.849 74.6021 22.7249C74.1427 22.3849 74.0496 21.9003 73.9927 21.366C74.1683 20.4589 74.5657 20.0297 75.1849 19.3923C75.2682 19.4348 75.2767 19.4341 75.3589 19.5059C75.7856 19.8786 75.9025 20.4865 75.8956 21.0299C75.8863 21.7649 75.6881 22.47 75.1681 23.0008Z"/>
	<path fill="#BAADAD" transform="scale(2.4 2.4)" d="M42.1192 36.0953C43.8809 35.1131 45.4398 33.72 47.1107 32.5845C49.4755 30.9775 51.9958 29.5537 54.4493 28.0849C54.1526 29.4596 53.791 30.8523 53.7079 32.2592C51.5581 32.085 47.3616 35.666 45.7689 37.0159C44.1313 38.4038 42.6517 39.9664 41.1784 41.5239C38.569 39.176 35.6373 36.8592 33.3565 34.1871C32.8885 34.6722 33.1332 35.5404 32.6133 36.1102C31.8314 35.2329 31.6923 34.7508 30.5747 34.2885C28.267 31.9971 26.4325 29.1542 24.2591 26.72C21.9016 24.0796 19.0598 21.8 16.9601 18.9467C25.0154 25.0792 33.3672 30.9887 42.1192 36.0953Z"/>
	<path fill="#83777B" transform="scale(2.4 2.4)" d="M121.909 27.6123C125.414 24.6397 129.126 22.033 132.731 19.2018C131.01 22.0596 128.134 24.0285 125.945 26.5053C121.585 31.441 117.497 36.9114 113.98 42.4755C113.259 43.0237 112.2 43.2111 111.588 43.8027C111.069 43.2363 110.608 42.8125 109.944 42.409L108.848 41.482C110.211 40.6185 111.353 39.2194 112.477 38.0676C113.9 37.2904 119.955 31.0724 121.038 29.5754C121.449 29.0077 121.689 28.2731 121.909 27.6123Z"/>
	<path fill="#47404A" transform="scale(2.4 2.4)" d="M74.0217 24.589C74.2833 23.9655 74.3584 23.559 74.9347 23.1726C76.4727 23.8793 76.7717 26.1994 77.854 27.4419L78.034 28.9222C78.0122 30.0293 78.0664 31.2401 77.8899 32.334C77.9391 33.1966 78.0482 33.8884 78.3511 34.7017C78.2062 35.3411 78.0579 35.9112 77.7585 36.5013L77.5342 35.7717C77.0324 35.123 76.4293 34.5156 75.8828 33.9014C76.1194 32.0648 76.2755 30.3162 76.2141 28.463C76.405 27.8751 76.4813 27.6524 76.3124 27.04C76.1315 26.3838 75.854 25.1548 75.2441 24.8027L74.7837 24.9414L74.0217 24.589Z"/>
	<path fill="#27292B" transform="scale(2.4 2.4)" d="M74.0217 24.589L74.7837 24.9414C74.3191 25.6347 73.8466 26.0684 73.8677 26.9176L74.3197 27.2454C74.2802 28.5288 74.0156 29.4807 73.596 30.6808L73.422 30.1464L72.5111 30.0866L71.9657 28.8992L72.1546 27.5049C72.9498 26.6937 73.2908 25.4935 74.0217 24.589Z"/>
	<path fill="#9E837B" fill-opacity="0.98431373" transform="scale(2.4 2.4)" d="M74.7837 24.9414L75.2441 24.8027C75.854 25.1548 76.1315 26.3838 76.3124 27.04C76.4813 27.6524 76.405 27.8751 76.2141 28.463L75.7389 28.6582C75.0102 28.4937 74.7461 27.8391 74.3197 27.2454L73.8677 26.9176C73.8466 26.0684 74.3191 25.6347 74.7837 24.9414Z"/>
	<path fill="#52585E" transform="scale(2.4 2.4)" d="M57.4224 29.4992C57.6797 29.3819 58.63 27.2545 59.0632 26.7764L58.9289 29.5003C58.2521 30.2661 57.4261 31.0814 57.0878 32.0682L57.0761 32.1313C56.7508 33.8026 55.44 34.3227 56.4204 36.0728C56.0813 37.4725 56.1159 38.7113 56.1973 40.1369C55.4882 39.9125 54.9848 39.5418 54.2871 39.854C53.8948 40.4552 53.6709 40.8681 53.632 41.5923C53.9772 42.4115 54.5191 42.8965 54.2499 43.7602C53.6341 44.2457 53.2224 44.6509 52.8083 45.3314C51.5161 43.7016 52.1319 41.8989 52.1337 39.9744C52.2452 39.8864 52.3442 39.7927 52.4261 39.6755C52.8753 39.033 52.7412 38.281 52.6247 37.5634C52.5043 36.3529 53.0318 35.4054 52.7135 34.1475L53.7079 32.2592C53.7956 32.3226 53.8042 32.3236 53.8903 32.4164C54.6013 33.183 54.2103 34.9881 54.1509 35.9863L54.6212 36.1885L54.5132 36.2593L54.1527 35.9941L54.3484 36.3153L54.4634 36.3028C55.7971 35.132 54.9908 32.8548 55.4617 31.301C55.4725 31.2653 55.4843 31.2299 55.4956 31.1944C56.1652 30.6741 56.7904 30.066 57.4224 29.4992Z"/>
	<path fill="#8F87CF" transform="scale(2.4 2.4)" d="M58.9289 29.5003C61.8057 28.7729 69.6748 26.3031 72.1546 27.5049L71.9657 28.8992C68.806 29.0538 65.7548 29.6896 62.721 30.5695C60.9632 31.0793 58.897 31.9595 57.0878 32.0682C57.4261 31.0814 58.2521 30.2661 58.9289 29.5003Z"/>
	<path fill="#8F87CF" transform="scale(2.4 2.4)" d="M77.854 27.4419C78.2625 27.0357 78.3496 27.0136 78.9509 27.0152C81.6524 27.0224 88.475 28.7641 91.5261 29.3191L91.7135 29.3683C92.1165 30.2509 92.5049 31.1436 92.962 31.9998C91.3597 32.1581 87.2477 30.4138 85.3874 29.9921C82.9557 29.441 80.5259 29.0412 78.034 28.9222L77.854 27.4419Z"/>
	<path fill="#766C65" transform="scale(2.4 2.4)" d="M74.3197 27.2454C74.7461 27.8391 75.0102 28.4937 75.7389 28.6582L76.2141 28.463C76.2755 30.3162 76.1194 32.0648 75.8828 33.9014C75.078 33.9036 74.3294 33.879 73.5608 34.1553C73.4986 33.02 73.5986 31.8236 73.596 30.6808C74.0156 29.4807 74.2802 28.5288 74.3197 27.2454Z"/>
	<path fill="#BAADAD" transform="scale(2.4 2.4)" d="M107.851 36.2211C112.512 33.3477 117.103 30.228 121.909 27.6123C121.689 28.2731 121.449 29.0077 121.038 29.5754C119.955 31.0724 113.9 37.2904 112.477 38.0676C111.297 37.7938 108.935 39.655 107.75 40.2631C105.274 38.0542 102.424 35.1441 99.3763 33.7497C98.509 33.3529 97.7236 33.1798 96.7993 33.5178C96.1646 31.9514 95.9407 30.1812 95.9212 28.5038C99.3746 31.4426 103.886 32.4643 107.851 36.2211Z"/>
	<path fill="#83777B" transform="scale(2.4 2.4)" d="M57.0878 32.0682C58.897 31.9595 60.9632 31.0793 62.721 30.5695C65.7548 29.6896 68.806 29.0538 71.9657 28.8992L72.5111 30.0866L72.0403 32.1832C67.1341 31.6396 60.5188 33.3178 56.4204 36.0728C55.44 34.3227 56.7508 33.8026 57.0761 32.1313L57.0878 32.0682Z"/>
	<path fill="#83777B" transform="scale(2.4 2.4)" d="M78.034 28.9222C80.5259 29.0412 82.9557 29.441 85.3874 29.9921C87.2477 30.4138 91.3597 32.1581 92.962 31.9998C93.7359 33.3765 93.8632 34.2765 93.6831 35.8346C92.5118 35.1223 91.1311 34.5972 89.8467 34.1228C87.363 33.2055 80.3658 31.1976 77.8899 32.334C78.0664 31.2401 78.0122 30.0293 78.034 28.9222Z"/>
	<path fill="#595F6A" transform="scale(2.4 2.4)" d="M57.4224 29.4992C56.7904 30.066 56.1652 30.6741 55.4956 31.1944C55.1963 30.9128 55.2082 30.8068 55.1435 30.4168C55.2742 30.1516 55.4198 29.8527 55.6184 29.6321C55.915 29.3026 56.3647 29.0925 56.805 29.0845C57.0712 29.0797 57.2346 29.3221 57.4224 29.4992Z"/>
	<path fill="#47404A" transform="scale(2.4 2.4)" d="M91.7135 29.3683L92.1605 29.192C93.9009 30.8442 94.9569 33.3136 95.0102 35.7264C95.0335 36.7836 94.6836 37.7084 94.001 38.5081L93.6831 35.8346C93.8632 34.2765 93.7359 33.3765 92.962 31.9998C92.5049 31.1436 92.1165 30.2509 91.7135 29.3683Z"/>
	<path fill="#3D3F3F" transform="scale(2.4 2.4)" d="M72.5111 30.0866L73.422 30.1464L73.596 30.6808C73.5986 31.8236 73.4986 33.02 73.5608 34.1553L73.1595 35.7139L72.697 35.8418C72.4675 35.455 72.3314 35.0619 72.189 34.6379L72.2081 34.2214C72.2807 33.5109 72.1654 32.8781 72.0403 32.1832L72.5111 30.0866Z"/>
	<defs>
		<linearGradient id="gradient_0" gradientUnits="userSpaceOnUse" x1="44.861732" y1="42.17075" x2="42.105186" y2="39.887745">
			<stop offset="0" stop-color="#D5BBA6"/>
			<stop offset="1" stop-color="#8F87CF"/>
		</linearGradient>
	</defs>
	<path fill="url(#gradient_0)" transform="scale(2.4 2.4)" d="M41.1784 41.5239C42.6517 39.9664 44.1313 38.4038 45.7689 37.0159C47.3616 35.666 51.5581 32.085 53.7079 32.2592L52.7135 34.1475C45.8556 38.9119 39.7125 43.8276 35.558 51.261L34.2944 50.306C36.0805 47.3967 37.4245 44.9831 39.8032 42.469C40.2998 42.2664 40.7521 41.8506 41.1784 41.5239Z"/>
	<path fill="#8F87CF" transform="scale(2.4 2.4)" d="M96.7993 33.5178C97.7236 33.1798 98.509 33.3529 99.3763 33.7497C102.424 35.1441 105.274 38.0542 107.75 40.2631C108.305 40.434 108.565 41.0143 108.848 41.482L109.944 42.409L109.105 42.4037L108.895 42.6571L110.002 44.0384C109.959 44.2356 109.946 44.3702 109.82 44.5341C108.78 43.6149 108.057 42.345 107.041 41.3892C104.609 39.1 100.206 36.0451 97.2056 34.4711L96.7993 33.5178Z"/>
	<defs>
		<linearGradient id="gradient_1" gradientUnits="userSpaceOnUse" x1="30.939848" y1="63.984879" x2="45.90831" y2="67.111397">
			<stop offset="0" stop-color="#585554"/>
			<stop offset="1" stop-color="#7D746F"/>
		</linearGradient>
	</defs>
	<path fill="url(#gradient_1)" transform="scale(2.4 2.4)" d="M35.558 51.261C39.7125 43.8276 45.8556 38.9119 52.7135 34.1475C53.0318 35.4054 52.5043 36.3529 52.6247 37.5634C43.4668 43.8121 35.514 54.2451 33.4235 65.2869C31.7629 74.0582 32.6835 84.0104 36.5597 92.0759C37.0753 93.1488 37.6096 94.4457 38.3069 95.4085C38.5342 95.7224 38.6401 95.8723 39.0223 95.9404C39.5072 96.7743 39.492 98.0658 39.5886 99.0226C39.2473 99.6186 38.9313 100.151 38.8011 100.836C38.7005 99.8561 37.0663 98.2655 36.4178 97.4791C35.5945 96.2003 34.8093 94.9113 34.1147 93.5572C29.4085 84.3826 28.5612 71.6531 31.1381 61.7213C31.7749 59.2671 33.0248 56.9494 33.8034 54.5252C34.3279 53.4087 34.9575 52.3382 35.558 51.261Z"/>
	<path fill="#8F87CF" transform="scale(2.4 2.4)" d="M59.7424 41.6163C59.7992 39.9282 59.5877 36.4039 60.5936 35.0733C62.9121 35.5035 63.804 40.4605 66.013 40.83C66.1635 40.8552 66.3707 40.6428 66.4884 40.5451C68.452 38.9139 69.5263 36.2982 72.2081 34.2214L72.189 34.6379C72.2042 35.7218 72.2447 36.5459 72.737 37.5275C72.7643 40.7811 72.4033 44.0244 72.3045 47.2757C72.1714 51.66 72.6207 56.9362 71.5968 61.2012C71.1333 61.0871 70.6507 61.0995 70.398 60.662C69.6758 59.4112 70.3763 57.4698 69.5456 56.2292C68.9887 56.3927 68.7263 56.7197 68.4511 57.2309C67.6637 58.6941 68.4903 62.6907 67.5056 62.9923C67.2047 63.0844 66.8409 63.0954 66.5271 63.1224C65.927 61.597 63.2388 58.441 62.1486 56.8955C61.9542 56.2262 61.4316 55.4705 61.1326 54.8147C60.4491 53.3152 59.936 51.8451 59.5132 50.2535C59.0756 49.6001 58.5248 49.0097 58.0153 48.4113C57.8313 46.5601 57.514 44.7848 57.1171 42.9682C58.0745 43.0059 58.9916 42.1549 59.7424 41.6163Z"/>
	<path fill="#5F61A5" transform="scale(2.4 2.4)" d="M73.5608 34.1553C74.3294 33.879 75.078 33.9036 75.8828 33.9014C76.4293 34.5156 77.0324 35.123 77.5342 35.7717C77.2431 36.1405 76.9402 36.3764 76.4889 36.5053C75.6585 36.7426 74.2205 36.9941 73.443 36.5191C73.2767 36.4175 73.2127 35.916 73.1595 35.7139L73.5608 34.1553Z"/>
	<path fill="#83777B" transform="scale(2.4 2.4)" d="M30.5747 34.2885C31.6923 34.7508 31.8314 35.2329 32.6133 36.1102C33.1332 35.5404 32.8885 34.6722 33.3565 34.1871C35.6373 36.8592 38.569 39.176 41.1784 41.5239C40.7521 41.8506 40.2998 42.2664 39.8032 42.469C37.7386 41.9946 37.9147 43.018 35.5545 41.7164C34.3775 38.9073 32.4426 36.6539 30.5747 34.2885Z"/>
	<defs>
		<linearGradient id="gradient_2" gradientUnits="userSpaceOnUse" x1="118.7465" y1="63.45752" x2="103.13487" y2="67.476425">
			<stop offset="0" stop-color="#585554"/>
			<stop offset="1" stop-color="#7D746F"/>
		</linearGradient>
	</defs>
	<path fill="url(#gradient_2)" transform="scale(2.4 2.4)" d="M97.2056 34.4711C100.206 36.0451 104.609 39.1 107.041 41.3892C108.057 42.345 108.78 43.6149 109.82 44.5341C111.173 46.6558 112.691 48.6864 114.145 50.7404C115.033 52.5429 116.124 54.2678 116.916 56.1128C120.145 63.639 120.179 71.1338 120.267 79.1581C120.015 82.9492 118.296 87.3309 116.891 90.8494C116.538 91.7345 115.382 93.6681 115.328 94.521C115.312 94.7776 115.615 95.1349 115.777 95.3207Q115.845 95.3986 115.915 95.4746L115.74 95.897L114.959 96.0965C114.066 96.5211 111.759 99.5736 111.395 100.582C111.349 100.709 111.318 100.835 111.289 100.966C111.005 99.2594 110.842 97.6909 111.154 95.9778C111.38 95.9197 111.566 95.7622 111.758 95.631C113.722 91.8462 115.742 87.2655 116.621 83.086C117.351 79.6161 117.266 70.8302 116.827 67.2097C115.257 54.2801 107.079 45.4329 97.2624 37.761C96.8402 36.9173 97.1052 35.3714 97.2056 34.4711Z"/>
	<path fill="#8F87CF" transform="scale(2.4 2.4)" d="M77.7585 36.5013C78.0579 35.9112 78.2062 35.3411 78.3511 34.7017C79.6187 35.9977 83.1075 40.6105 84.1382 41.1484C85.9195 39.8869 87.1406 35.4543 89.2401 35.0549C91.3642 37.456 90.3318 41.5998 92.0937 44.0239L92.4549 44.3807C92.3562 44.8835 92.2517 45.3831 92.2029 45.8938C92.0792 47.0339 92.0704 48.3593 91.364 49.3045C89.9444 51.2347 89.293 53.8043 88.2642 55.9636C87.2594 58.0727 85.7655 59.7999 84.2644 61.5571C83.8827 62.0039 83.4841 62.8607 83.0185 63.1627C82.3168 63.061 81.7446 62.9518 81.0993 62.6352C81.4607 62.2623 81.7839 61.8916 81.8789 61.3657C82.0965 60.1611 81.9597 58.3698 81.2789 57.3401C80.7728 57.0342 80.6755 57.0133 80.0902 57.0972C79.5322 57.9751 80.5469 59.4468 79.8212 60.5552C79.4876 61.0647 78.8742 61.0571 78.3134 61.1782C76.5564 57.1918 77.7507 46.522 77.0769 41.3501L76.8013 38.1425L77.7585 36.5013Z"/>
	<path fill="#27292B" transform="scale(2.4 2.4)" d="M72.189 34.6379C72.3314 35.0619 72.4675 35.455 72.697 35.8418L73.1595 35.7139C73.2127 35.916 73.2767 36.4175 73.443 36.5191C74.2205 36.9941 75.6585 36.7426 76.4889 36.5053C76.9402 36.3764 77.2431 36.1405 77.5342 35.7717L77.7585 36.5013L76.8013 38.1425L77.0769 41.3501L76.8785 42.708C76.8293 42.4159 76.7819 42.1237 76.7214 41.8336C76.4113 42.1416 76.166 42.3904 75.9828 42.7944C75.9991 41.476 75.7968 40.132 75.6631 38.8206L76.0248 38.3338C75.0372 37.5709 73.6433 38.26 72.737 37.5275C72.2447 36.5459 72.2042 35.7218 72.189 34.6379Z"/>
	<defs>
		<linearGradient id="gradient_3" gradientUnits="userSpaceOnUse" x1="94.138023" y1="52.813591" x2="87.701698" y2="48.565624">
			<stop offset="0" stop-color="#52585E"/>
			<stop offset="1" stop-color="#69686F"/>
		</linearGradient>
	</defs>
	<path fill="url(#gradient_3)" transform="scale(2.4 2.4)" d="M93.9355 41.0625C94.926 39.9012 95.4573 38.3014 95.5874 36.8026C95.7622 37.1769 95.8792 37.5915 96.0937 37.9449C96.3989 38.4478 96.5992 38.4166 97.1497 38.5399C97.5054 40.0037 98.1691 41.7497 98.1853 43.2308C97.2204 44.6004 95.7353 46.3181 95.1533 47.8819C94.4237 49.8421 94.5744 52.3055 93.6698 54.1558C91.916 57.743 89.202 61.0424 87.2365 64.5629C87.0686 64.4056 86.8934 64.2677 86.7161 64.1219C85.6368 63.2347 84.2509 64.0333 83.0185 63.1627C83.4841 62.8607 83.8827 62.0039 84.2644 61.5571C85.7655 59.7999 87.2594 58.0727 88.2642 55.9636C89.293 53.8043 89.9444 51.2347 91.364 49.3045C91.6317 49.9127 91.8347 50.481 92.3953 50.881C93.0131 50.199 92.2195 46.9523 92.2029 45.8938C92.2517 45.3831 92.3562 44.8835 92.4549 44.3807L92.0937 44.0239C92.9248 43.495 93.5674 41.9552 93.9355 41.0625Z"/>
	<defs>
		<linearGradient id="gradient_4" gradientUnits="userSpaceOnUse" x1="77.935127" y1="51.566715" x2="69.433235" y2="48.355675">
			<stop offset="0" stop-color="#3A3A40"/>
			<stop offset="1" stop-color="#52585E"/>
		</linearGradient>
	</defs>
	<path fill="url(#gradient_4)" transform="scale(2.4 2.4)" d="M72.737 37.5275C73.6433 38.26 75.0372 37.5709 76.0248 38.3338L75.6631 38.8206C74.7312 39.8577 74.5045 43.5201 74.5817 45.0009C74.595 45.2567 74.6872 45.497 74.7969 45.7255C74.101 47.8648 73.5347 50.5351 74.5922 52.6743C74.7189 52.9306 74.8888 53.1444 75.0734 53.3594C75.0962 53.386 75.1183 53.4133 75.1407 53.4402C73.8823 55.6025 75.9153 59.0615 75.0486 61.3952C74.764 61.6013 74.4628 61.87 74.1426 62.0106L73.356 61.8678L72.0913 61.7534C71.9883 61.3818 71.9354 61.4002 71.5968 61.2012C72.6207 56.9362 72.1714 51.66 72.3045 47.2757C72.4033 44.0244 72.7643 40.7811 72.737 37.5275Z"/>
	<path fill="#8F87CF" transform="scale(2.4 2.4)" d="M107.75 40.2631C108.935 39.655 111.297 37.7938 112.477 38.0676C111.353 39.2194 110.211 40.6185 108.848 41.482C108.565 41.0143 108.305 40.434 107.75 40.2631Z"/>
	<path fill="#83777B" transform="scale(2.4 2.4)" d="M74.7969 45.7255C74.6872 45.497 74.595 45.2567 74.5817 45.0009C74.5045 43.5201 74.7312 39.8577 75.6631 38.8206C75.7968 40.132 75.9991 41.476 75.9828 42.7944L76.0128 45.9928L75.5789 45.556L74.7969 45.7255Z"/>
	<path fill="#595F6A" transform="scale(2.4 2.4)" d="M52.8083 45.3314C53.2224 44.6509 53.6341 44.2457 54.2499 43.7602C54.5191 42.8965 53.9772 42.4115 53.632 41.5923C53.6709 40.8681 53.8948 40.4552 54.2871 39.854C54.9848 39.5418 55.4882 39.9125 56.1973 40.1369C56.3225 41.1941 56.664 42.0121 57.1171 42.9682C57.514 44.7848 57.8313 46.5601 58.0153 48.4113C58.5248 49.0097 59.0756 49.6001 59.5132 50.2535C58.6356 51.2808 57.5062 51.1749 57.2506 51.6003C57.4814 51.9747 57.7189 52.2882 58.0204 52.6083C57.9392 52.8247 57.8684 53.0638 57.7531 53.2631C57.1236 52.7579 56.7021 52.5736 55.8969 52.5005C55.9115 52.3836 55.9251 52.2685 55.9322 52.1509C56.0741 49.7856 54.2985 47.0159 52.8083 45.3314Z"/>
	<path fill="#8F87CF" transform="scale(2.4 2.4)" d="M47.1387 44.7561C47.2405 45.0826 47.442 45.4241 47.6208 45.7144C47.9701 46.2815 48.2186 46.5312 48.8436 46.6772C49.8682 46.2277 51.1048 41.3385 52.1337 39.9744C52.1319 41.8989 51.5161 43.7016 52.8083 45.3314C54.2985 47.0159 56.0741 49.7856 55.9322 52.1509C55.9251 52.2685 55.9115 52.3836 55.8969 52.5005C56.3258 55.6042 61.529 62.8546 63.5208 65.5928C63.9425 66.1726 64.7204 66.4956 64.9798 67.1712C64.9346 67.7917 65.0277 68.228 64.5715 68.6829C62.7889 68.0475 60.892 67.2488 59.0413 66.8697C58.1616 66.6895 57.0723 66.8358 56.2529 66.5727C52.9021 65.4966 49.554 61.1161 47.9376 58.1269C46.1836 54.8831 45.0033 51.0919 45.9876 47.3952C46.2283 46.4913 46.8585 45.699 47.1387 44.7561Z"/>
	<defs>
		<linearGradient id="gradient_5" gradientUnits="userSpaceOnUse" x1="23.895941" y1="58.552036" x2="40.379517" y2="56.308384">
			<stop offset="0" stop-color="#69686F"/>
			<stop offset="1" stop-color="#A29097"/>
		</linearGradient>
	</defs>
	<path fill="url(#gradient_5)" transform="scale(2.4 2.4)" d="M35.5545 41.7164C37.9147 43.018 37.7386 41.9946 39.8032 42.469C37.4245 44.9831 36.0805 47.3967 34.2944 50.306C33.6658 51.2951 32.94 52.5511 32.6442 53.6813C30.5419 56.5637 28.9094 64.3967 28.4664 68.0792C28.2498 69.8794 28.2826 71.6892 28.1031 73.4848C28.0818 73.698 27.9907 73.8566 27.8624 74.0254L27.3955 73.941C26.2365 72.725 25.9286 70.7794 24.7577 69.5834C25.1565 63.8288 28.5502 54.1219 31.3314 49.1113C32.6833 46.6757 35.0097 44.5303 35.5545 41.7164Z"/>
	<defs>
		<linearGradient id="gradient_6" gradientUnits="userSpaceOnUse" x1="73.452934" y1="52.801903" x2="79.831451" y2="50.323315">
			<stop offset="0" stop-color="#3A3A40"/>
			<stop offset="1" stop-color="#56505E"/>
		</linearGradient>
	</defs>
	<path fill="url(#gradient_6)" transform="scale(2.4 2.4)" d="M77.0769 41.3501C77.7507 46.522 76.5564 57.1918 78.3134 61.1782L78.0718 61.4271L78.3846 61.9399C78.0043 61.8433 77.5683 61.7571 77.2102 61.597C74.7474 60.4965 76.8064 55.484 75.8447 53.2614C76.4564 51.2482 76.0446 48.1311 76.0128 45.9928L75.9828 42.7944C76.166 42.3904 76.4113 42.1416 76.7214 41.8336C76.7819 42.1237 76.8293 42.4159 76.8785 42.708L77.0769 41.3501Z"/>
	<path fill="#6F82B9" transform="scale(2.4 2.4)" d="M109.944 42.409C110.608 42.8125 111.069 43.2363 111.588 43.8027C112.906 45.7984 114.372 47.798 115.428 49.9444C115.43 50.3848 115.451 50.8086 115.504 51.2459L115.131 51.6043C114.911 51.3304 114.725 51.0378 114.536 50.7423L114.145 50.7404C112.691 48.6864 111.173 46.6558 109.82 44.5341C109.946 44.3702 109.959 44.2356 110.002 44.0384L108.895 42.6571L109.105 42.4037L109.944 42.409Z"/>
	<defs>
		<linearGradient id="gradient_7" gradientUnits="userSpaceOnUse" x1="125.07172" y1="58.079659" x2="111.84667" y2="57.690033">
			<stop offset="0" stop-color="#736A77"/>
			<stop offset="1" stop-color="#A29097"/>
		</linearGradient>
	</defs>
	<path fill="url(#gradient_7)" transform="scale(2.4 2.4)" d="M111.588 43.8027C112.2 43.2111 113.259 43.0237 113.98 42.4755C119.247 48.0332 124.999 61.4455 125.329 68.9814C125.027 70.2563 125.026 72.2971 123.819 73.055C123.314 73.372 122.54 73.5226 121.948 73.5746C121.425 72.0699 122.015 69.5492 121.855 67.8698C121.426 63.3559 118.296 53.329 115.428 49.9444C114.372 47.798 112.906 45.7984 111.588 43.8027Z"/>
	<path fill="#8F87CF" transform="scale(2.4 2.4)" d="M87.2365 64.5629C89.202 61.0424 91.916 57.743 93.6698 54.1558C94.5744 52.3055 94.4237 49.8421 95.1533 47.8819C95.7353 46.3181 97.2204 44.6004 98.1853 43.2308C99.2857 45.5996 100.795 48.0089 100.979 50.691C101.038 51.5561 100.808 53.3275 101.442 53.8416C102.2 53.9071 102.931 53.9395 103.693 53.9201C103.039 55.8984 102.151 57.6609 101.106 59.4603C99.9679 61.0663 98.8738 62.737 97.5061 64.1594C93.4165 67.3518 89.3533 66.4056 85.7774 68.4957C84.8608 68.4074 84.3329 67.7544 83.7346 67.1343C84.9948 65.8131 86.1358 66.4414 87.2365 64.5629Z"/>
	<defs>
		<linearGradient id="gradient_8" gradientUnits="userSpaceOnUse" x1="73.189613" y1="95.29689" x2="73.560921" y2="49.483509">
			<stop offset="0" stop-color="#27292B"/>
			<stop offset="1" stop-color="#47404A"/>
		</linearGradient>
	</defs>
	<path fill="url(#gradient_8)" transform="scale(2.4 2.4)" d="M47.1387 44.7561C46.8585 45.699 46.2283 46.4913 45.9876 47.3952C45.0033 51.0919 46.1836 54.8831 47.9376 58.1269C49.554 61.1161 52.9021 65.4966 56.2529 66.5727C57.0723 66.8358 58.1616 66.6895 59.0413 66.8697C60.892 67.2488 62.7889 68.0475 64.5715 68.6829C65.0277 68.228 64.9346 67.7917 64.9798 67.1712C64.988 66.1731 65.4972 65.6305 65.5842 64.7464C65.2366 64.3726 64.9346 63.971 64.6286 63.563C65.0857 63.889 65.507 64.1459 66.0321 64.3495C66.0374 64.3516 66.1642 64.3984 66.1781 64.408C66.1927 64.418 66.2012 64.4349 66.2127 64.4483C66.2666 64.0138 66.3046 63.5983 66.4907 63.1964C66.5022 63.1715 66.5149 63.1471 66.5271 63.1224C66.8409 63.0954 67.2047 63.0844 67.5056 62.9923C68.4903 62.6907 67.6637 58.6941 68.4511 57.2309C68.7263 56.7197 68.9887 56.3927 69.5456 56.2292C70.3763 57.4698 69.6758 59.4112 70.398 60.662C70.6507 61.0995 71.1333 61.0871 71.5968 61.2012C71.9354 61.4002 71.9883 61.3818 72.0913 61.7534C72.0657 61.7907 72.0405 61.8283 72.0144 61.8653C71.1678 63.0664 68.3957 63.8369 68.6965 65.7376C68.7442 66.0387 68.8481 66.3376 68.9495 66.6243L69.059 67.1279C68.9803 68.421 68.7631 69.533 68.9272 70.8372L69.3223 70.9612C70.2371 70.4035 70.2909 69.6278 71.0833 69.0533C71.8388 67.9434 72.4724 66.7221 73.1275 65.5496L73.4021 66.0214C73.1966 66.9355 73.1188 67.7939 73.0887 68.729C73.6455 68.7506 74.2021 68.7926 74.7589 68.7994C75.964 68.8141 76.9026 70.0755 78.0085 69.7537C78.3188 69.435 78.6355 69.0426 78.9834 68.7709L79.2809 68.7061C79.7997 68.3945 79.9889 67.6947 80.4748 67.2405C80.9359 67.6168 80.9968 67.6568 81.061 68.249L80.7233 68.8649L80.9025 69.1616C81.6023 69.0313 82.0136 68.9786 82.4508 68.3522C82.8706 67.7507 83.0287 67.4198 83.7346 67.1343C84.3329 67.7544 84.8608 68.4074 85.7774 68.4957C86.1223 68.5375 86.3104 68.6758 86.5861 68.8717L86.6347 69.8266C87.1154 70.1128 87.2235 70.1017 87.7772 70.0226C87.9224 69.7367 88.1918 69.2117 88.5074 69.0839C88.7704 68.9774 89.5747 69.0346 89.8817 69.0198C92.8215 68.878 94.9811 68.8087 97.4965 67.0343C98.2675 66.4905 98.7901 66.0042 98.9589 65.054C98.5312 64.4317 98.1927 64.3992 97.5061 64.1594C98.8738 62.737 99.9679 61.0663 101.106 59.4603C101.124 59.4985 101.143 59.5364 101.161 59.5749C101.631 60.5988 101.227 61.8429 101.907 62.7544C102.358 62.7423 102.667 62.5906 103.067 62.3994C103.283 62.6319 103.527 62.8617 103.71 63.121C102.132 64.5914 94.7026 71.9118 92.9366 71.8217C92.2612 71.7873 92.0891 71.2637 91.583 71.1126C90.5655 70.8088 85.799 72.2706 84.9892 72.993C84.9635 73.0159 84.9387 73.0398 84.9135 73.0632C85.103 73.3771 85.9915 73.4998 86.3592 73.5912C87.9835 73.995 91.1481 75.0801 92.7224 74.863C93.2399 74.2623 93.3342 73.9998 94.1591 73.9433C95.0882 73.8797 95.8839 74.5023 96.773 74.5898C98.4206 74.7519 99.739 73.1632 101.342 74.5526C101.541 74.7252 101.697 74.9529 101.84 75.1715C101.958 76.5988 101.235 77.306 101.14 78.5299C101.061 79.5419 101.889 80.0793 101.587 81.2335C100.526 80.0669 99.4912 78.8005 98.2928 77.7743C97.4855 78.1375 96.5174 78.6706 95.6265 78.7406C94.1611 78.8558 89.9259 77.0131 89.1251 78.5983C90.7592 82.004 94.0361 84.2653 94.9215 88.176C94.6789 89.5538 95.4425 90.5992 96.1984 91.6776C96.4668 92.0606 99.2355 95.5812 99.235 95.5979C98.2896 95.5834 97.3866 95.4335 96.4566 95.2765C96.1181 94.5662 95.7066 93.3483 94.9727 92.9875L94.3237 93.1297C94.0101 92.8621 93.8255 92.7729 93.4127 92.7438L91.4593 89.6826C90.5843 91.7399 89.8576 96.898 88.1905 98.0757C87.7538 97.5652 89.5244 95.5245 89.4199 94.0685L88.7501 94.1795L88.837 94.2111C88.2818 94.9144 88.1961 95.9419 88.0229 96.8003C87.9936 96.5984 87.9703 96.3987 87.9643 96.1946C87.9327 95.1198 88.2049 94.4502 88.9312 93.6699L88.9996 93.5976C89.2968 92.294 89.0287 90.7331 88.9357 89.4023C88.8199 85.5582 87.7236 82.9092 86.2368 79.438C85.4446 77.6085 83.6724 76.0574 81.9288 75.1566C80.132 73.5938 77.3992 73.2437 75.2192 72.4914C73.8361 72.83 72.1661 73.0654 70.9346 73.79C69.4779 74.21 68.5099 75.0738 67.2995 75.9316C65.623 76.8421 64.5083 77.9472 63.8372 79.7496C63.2631 80.4862 62.9334 81.3436 62.5664 82.1947C61.6841 83.3076 61.4594 84.8369 61.2608 86.2007L61.0864 86.3251C60.6319 85.8448 60.5213 85.6068 59.8595 85.4792C59.2237 85.8255 58.9483 86.535 58.6262 87.1515L57.6833 87.1728C57.1678 86.4837 56.5416 86.4955 56.0613 85.7559C57.4634 83.0474 59.7915 81.1342 61.1985 78.5279C60.3921 76.7827 55.7757 79.5655 53.6736 78.193C53.4266 77.9078 53.2387 77.6452 53.0519 77.3174C53.5111 77.0512 53.9202 76.6586 54.3269 76.3168C54.3493 75.7044 53.8067 75.1115 53.47 74.6273C56.5724 73.4161 60.2614 74.4498 63.5143 73.9234C64.1779 73.816 65.0011 73.7032 65.4204 73.126C65.2957 72.9089 65.1281 72.5593 64.9177 72.4192C64.6981 72.273 58.2838 71.1275 58.1536 71.1723C57.8025 71.293 57.7181 71.793 57.1402 71.9108C55.2826 71.5081 52.6936 68.8235 51.1812 67.5327C44.5514 61.8741 44.2617 61.184 43.5909 52.706C43.7589 50.7335 44.9654 45.1716 46.425 43.8578L46.9033 43.9797L47.1387 44.7561ZM59.1199 68.4411C59.3199 69.2155 59.3361 69.3237 59.9364 69.8397C60.8159 70.0841 61.6672 70.0051 62.5668 69.9563C61.9582 69.1387 61.1986 68.57 60.1693 68.4127C59.8183 68.3591 59.4692 68.3931 59.1199 68.4411ZM57.4578 74.8446L57.028 75.4128L57.1467 75.9335C58.1607 76.5328 59.8363 76.2467 60.9535 76.064L61.5233 75.5645L61.4522 75.1558C60.3232 74.5521 58.6963 74.7065 57.4578 74.8446Z"/>
	<path fill="#3D3F3F" transform="scale(2.4 2.4)" d="M105.151 47.4168C104.651 47.6212 104.116 47.7915 103.741 48.1968C102.627 47.602 103.206 46.5699 102.912 45.6508C102.83 45.3962 102.339 44.9029 102.158 44.6672C102.115 44.1463 102.118 44.1362 102.422 43.7112C102.696 43.7464 102.972 43.747 103.205 43.9116C104.298 44.6841 104.959 46.1271 105.151 47.4168Z"/>
	<path fill="#BAADAD" transform="scale(2.4 2.4)" d="M74.7969 45.7255L75.5789 45.556L76.0128 45.9928C76.0446 48.1311 76.4564 51.2482 75.8447 53.2614L75.1407 53.4402C75.1183 53.4133 75.0962 53.386 75.0734 53.3594C74.8888 53.1444 74.7189 52.9306 74.5922 52.6743C73.5347 50.5351 74.101 47.8648 74.7969 45.7255Z"/>
	<path fill="#595F6A" transform="scale(2.4 2.4)" d="M91.364 49.3045C92.0704 48.3593 92.0792 47.0339 92.2029 45.8938C92.2195 46.9523 93.0131 50.199 92.3953 50.881C91.8347 50.481 91.6317 49.9127 91.364 49.3045Z"/>
	<path fill="#52585E" transform="scale(2.4 2.4)" d="M103.741 48.1968C104.116 47.7915 104.651 47.6212 105.151 47.4168C105.143 48.6244 105.734 49.7536 105.936 50.9464C106.291 53.0381 106.296 55.1143 106.277 57.2298C106.2 57.2992 104.894 61.7519 103.71 63.121C103.527 62.8617 103.283 62.6319 103.067 62.3994C102.667 62.5906 102.358 62.7423 101.907 62.7544C101.227 61.8429 101.631 60.5988 101.161 59.5749C101.143 59.5364 101.124 59.4985 101.106 59.4603C102.151 57.6609 103.039 55.8984 103.693 53.9201C104.076 52.3349 104.345 49.7187 103.741 48.1968Z"/>
	<defs>
		<linearGradient id="gradient_9" gradientUnits="userSpaceOnUse" x1="117.03555" y1="66.153214" x2="121.07882" y2="65.64312">
			<stop offset="0" stop-color="#D9BF94"/>
			<stop offset="1" stop-color="#A58362"/>
		</linearGradient>
	</defs>
	<path fill="url(#gradient_9)" transform="scale(2.4 2.4)" d="M115.428 49.9444C118.296 53.329 121.426 63.3559 121.855 67.8698C122.015 69.5492 121.425 72.0699 121.948 73.5746L121.946 73.7726C121.85 74.2363 121.779 74.5249 121.983 74.9728C122.001 77.2107 122.198 79.9302 121.481 82.0825C120.657 81.2745 120.493 80.2372 120.267 79.1581C120.179 71.1338 120.145 63.639 116.916 56.1128C116.124 54.2678 115.033 52.5429 114.145 50.7404L114.536 50.7423C114.725 51.0378 114.911 51.3304 115.131 51.6043L115.504 51.2459C115.451 50.8086 115.43 50.3848 115.428 49.9444Z"/>
	<path fill="#5F61A5" transform="scale(2.4 2.4)" d="M32.6442 53.6813C32.94 52.5511 33.6658 51.2951 34.2944 50.306L35.558 51.261C34.9575 52.3382 34.3279 53.4087 33.8034 54.5252L33.4044 54.4247C33.5681 53.7827 33.7464 53.5404 33.4201 52.9235C33.2555 53.1906 33.1284 53.4762 32.9945 53.7595L32.6442 53.6813Z"/>
	<path fill="#52585E" transform="scale(2.4 2.4)" d="M57.7531 53.2631C57.8684 53.0638 57.9392 52.8247 58.0204 52.6083C57.7189 52.2882 57.4814 51.9747 57.2506 51.6003C57.5062 51.1749 58.6356 51.2808 59.5132 50.2535C59.936 51.8451 60.4491 53.3152 61.1326 54.8147C61.4316 55.4705 61.9542 56.2262 62.1486 56.8955C61.5921 57.9065 62.2168 58.556 61.6784 59.5312C59.8368 57.2865 59.2102 55.5579 57.7531 53.2631Z"/>
	<path fill="#47404A" transform="scale(2.4 2.4)" d="M55.8969 52.5005C56.7021 52.5736 57.1236 52.7579 57.7531 53.2631C59.2102 55.5579 59.8368 57.2865 61.6784 59.5312C61.6513 60.5686 62.904 62.0621 63.6114 62.7989C63.8715 63.0699 64.1671 63.2548 64.4927 63.4379C64.5822 63.4883 64.5501 63.4689 64.6286 63.563C64.9346 63.971 65.2366 64.3726 65.5842 64.7464C65.4972 65.6305 64.988 66.1731 64.9798 67.1712C64.7204 66.4956 63.9425 66.1726 63.5208 65.5928C61.529 62.8546 56.3258 55.6042 55.8969 52.5005Z"/>
	<defs>
		<linearGradient id="gradient_10" gradientUnits="userSpaceOnUse" x1="25.932169" y1="78.456032" x2="41.693756" y2="71.460007">
			<stop offset="0" stop-color="#A58362"/>
			<stop offset="1" stop-color="#C3A681"/>
		</linearGradient>
	</defs>
	<path fill="url(#gradient_10)" transform="scale(2.4 2.4)" d="M27.8624 74.0254C27.9907 73.8566 28.0818 73.698 28.1031 73.4848C28.2826 71.6892 28.2498 69.8794 28.4664 68.0792C28.9094 64.3967 30.5419 56.5637 32.6442 53.6813L32.9945 53.7595C33.1284 53.4762 33.2555 53.1906 33.4201 52.9235C33.7464 53.5404 33.5681 53.7827 33.4044 54.4247L33.8034 54.5252C33.0248 56.9494 31.7749 59.2671 31.1381 61.7213C28.5612 71.6531 29.4085 84.3826 34.1147 93.5572C34.8093 94.9113 35.5945 96.2003 36.4178 97.4791C35.6225 97.4101 35.1287 97.4482 34.3742 97.7451C30.6298 90.3743 28.0863 83.3674 28.1727 74.9836L27.8624 74.0254Z"/>
	<path fill="#6F82B9" transform="scale(2.4 2.4)" d="M43.5909 52.706C44.2617 61.184 44.5514 61.8741 51.1812 67.5327C52.6936 68.8235 55.2826 71.5081 57.1402 71.9108C57.7181 71.793 57.8025 71.293 58.1536 71.1723C58.2838 71.1275 64.6981 72.273 64.9177 72.4192C65.1281 72.5593 65.2957 72.9089 65.4204 73.126C65.0011 73.7032 64.1779 73.816 63.5143 73.9234C60.2614 74.4498 56.5724 73.4161 53.47 74.6273C53.4397 74.6399 53.4096 74.6533 53.3789 74.6651C52.7485 74.907 51.8446 74.8422 51.2538 74.5533C50.5896 74.2679 50.3358 74.0759 49.6038 74.2471C48.9186 74.7652 48.2901 76.1056 48.1556 76.9467C48.1522 76.9676 48.1521 76.9889 48.1504 77.01C46.1657 79.3489 44.3734 81.9761 42.2822 84.197C41.4644 84.7107 40.5344 85.4296 39.6066 85.687C39.8181 85.2527 39.9574 84.8334 40.0838 84.3676C39.4755 82.8453 36.7131 82.2511 35.2388 81.5843C36.3014 80.9306 37.4627 80.3575 38.4837 79.6516C39.133 79.2027 40.0276 78.2782 40.1463 77.4871C40.4631 75.3754 35.7995 75.5632 34.8199 74.2308C34.9746 72.5239 39.5567 71.148 40.7618 69.5343C42.6885 66.9542 37.3267 65.165 37.0391 63.1892C38.2512 62.6099 40.5949 63.1874 41.9916 62.9093C42.5982 62.7885 42.7931 62.6456 43.1171 62.1468C42.8873 60.0306 39.5839 59.2739 39.1616 57.5867C39.9821 56.8094 42.1651 56.4579 43.3566 55.7815C43.4801 54.7679 43.5143 53.7255 43.5909 52.706Z"/>
	<path fill="#47404A" transform="scale(2.4 2.4)" d="M75.1407 53.4402L75.8447 53.2614C76.8064 55.484 74.7474 60.4965 77.2102 61.597C77.5683 61.7571 78.0043 61.8433 78.3846 61.9399C79.2166 62.5638 79.6845 62.8494 80.7667 62.6932C80.8782 62.6771 80.9886 62.6561 81.0993 62.6352C81.7446 62.9518 82.3168 63.061 83.0185 63.1627C84.2509 64.0333 85.6368 63.2347 86.7161 64.1219C86.8934 64.2677 87.0686 64.4056 87.2365 64.5629C86.1358 66.4414 84.9948 65.8131 83.7346 67.1343C83.0287 67.4198 82.8706 67.7507 82.4508 68.3522C82.0136 68.9786 81.6023 69.0313 80.9025 69.1616L80.7233 68.8649L81.061 68.249C80.9968 67.6568 80.9359 67.6168 80.4748 67.2405C80.2097 66.6373 79.7791 66.336 79.2669 65.9568L79.1145 65.4819C78.3286 64.9964 77.4834 64.6543 76.6359 64.293L76.1678 64.487C75.5202 63.675 76.0303 62.4688 75.0486 61.3952C75.9153 59.0615 73.8823 55.6025 75.1407 53.4402Z"/>
	<path fill="#3D3F3F" transform="scale(2.4 2.4)" d="M78.3134 61.1782C78.8742 61.0571 79.4876 61.0647 79.8212 60.5552C80.5469 59.4468 79.5322 57.9751 80.0902 57.0972C80.6755 57.0133 80.7728 57.0342 81.2789 57.3401C81.9597 58.3698 82.0965 60.1611 81.8789 61.3657C81.7839 61.8916 81.4607 62.2623 81.0993 62.6352C80.9886 62.6561 80.8782 62.6771 80.7667 62.6932C79.6845 62.8494 79.2166 62.5638 78.3846 61.9399L78.0718 61.4271L78.3134 61.1782Z"/>
	<path fill="#6F82B9" transform="scale(2.4 2.4)" d="M103.71 63.121C104.894 61.7519 106.2 57.2992 106.277 57.2298C107.29 57.0779 108.527 56.757 109.51 57.0984C109.754 57.3567 109.957 57.4687 109.943 57.8504C109.893 59.1877 107.576 61.8899 106.863 63.2217C108.426 63.0811 110.561 62.5832 111.955 63.4379C112.109 63.8889 112.146 64.0088 111.933 64.4451C111.542 65.2441 108.511 67.8478 108.735 68.5178C109.344 70.3359 114.81 73.0758 116.407 74.603C113.616 75.2179 111.07 76.2994 108.514 77.5592C110.788 78.547 112.836 79.7106 114.252 81.8326C112.627 82.4796 109.927 82.8109 109.119 83.1644C109.057 83.1913 108.789 83.685 108.731 83.776L108.152 84.5396C106.5 82.9061 103.047 79.1453 102.149 77.1458C101.897 76.5839 101.887 75.7832 101.84 75.1715C101.697 74.9529 101.541 74.7252 101.342 74.5526C99.739 73.1632 98.4206 74.7519 96.773 74.5898C95.8839 74.5023 95.0882 73.8797 94.1591 73.9433C93.3342 73.9998 93.2399 74.2623 92.7224 74.863C91.1481 75.0801 87.9835 73.995 86.3592 73.5912C85.9915 73.4998 85.103 73.3771 84.9135 73.0632C84.9387 73.0398 84.9635 73.0159 84.9892 72.993C85.799 72.2706 90.5655 70.8088 91.583 71.1126C92.0891 71.2637 92.2612 71.7873 92.9366 71.8217C94.7026 71.9118 102.132 64.5914 103.71 63.121Z"/>
	<path fill="#595F6A" transform="scale(2.4 2.4)" d="M61.6784 59.5312C62.2168 58.556 61.5921 57.9065 62.1486 56.8955C63.2388 58.441 65.927 61.597 66.5271 63.1224C66.5149 63.1471 66.5022 63.1715 66.4907 63.1964C66.3046 63.5983 66.2666 64.0138 66.2127 64.4483C66.2012 64.4349 66.1927 64.418 66.1781 64.408C66.1642 64.3984 66.0374 64.3516 66.0321 64.3495C65.507 64.1459 65.0857 63.889 64.6286 63.563C64.5501 63.4689 64.5822 63.4883 64.4927 63.4379C64.1671 63.2548 63.8715 63.0699 63.6114 62.7989C62.904 62.0621 61.6513 60.5686 61.6784 59.5312Z"/>
	<path fill="#3D3F3F" transform="scale(2.4 2.4)" d="M75.0486 61.3952C76.0303 62.4688 75.5202 63.675 76.1678 64.487C76.525 64.9357 76.8976 65.2025 76.8298 65.801C76.8115 65.9619 76.7869 66.049 76.7149 66.1897C76.3362 65.8996 75.9162 65.6659 75.5074 65.4212C74.6871 65.2468 74.0979 65.6473 73.4021 66.0214L73.1275 65.5496L73.6584 64.5784C74.1763 63.8711 74.079 62.8818 74.1426 62.0106C74.4628 61.87 74.764 61.6013 75.0486 61.3952Z"/>
	<path fill="#47404A" transform="scale(2.4 2.4)" d="M72.0913 61.7534L73.356 61.8678C72.8081 62.0638 72.3417 62.1146 72.0187 62.619C72.2067 62.9872 72.5516 63.1209 72.9015 63.3008C72.901 63.4701 72.9344 63.759 72.8846 63.9134C72.6063 64.1843 72.2492 64.6422 71.9313 64.8411C70.6978 65.613 69.4493 64.7112 68.9495 66.6243C68.8481 66.3376 68.7442 66.0387 68.6965 65.7376C68.3957 63.8369 71.1678 63.0664 72.0144 61.8653C72.0405 61.8283 72.0657 61.7907 72.0913 61.7534Z"/>
	<path fill="#595F6A" transform="scale(2.4 2.4)" d="M73.356 61.8678L74.1426 62.0106C74.079 62.8818 74.1763 63.8711 73.6584 64.5784L72.8846 63.9134C72.9344 63.759 72.901 63.4701 72.9015 63.3008C72.5516 63.1209 72.2067 62.9872 72.0187 62.619C72.3417 62.1146 72.8081 62.0638 73.356 61.8678Z"/>
	<path fill="#595F6A" transform="scale(2.4 2.4)" d="M85.7774 68.4957C89.3533 66.4056 93.4165 67.3518 97.5061 64.1594C98.1927 64.3992 98.5312 64.4317 98.9589 65.054C98.7901 66.0042 98.2675 66.4905 97.4965 67.0343C94.9811 68.8087 92.8215 68.878 89.8817 69.0198C89.5747 69.0346 88.7704 68.9774 88.5074 69.0839C88.1918 69.2117 87.9224 69.7367 87.7772 70.0226C87.2235 70.1017 87.1154 70.1128 86.6347 69.8266L86.5861 68.8717C86.3104 68.6758 86.1223 68.5375 85.7774 68.4957Z"/>
	<path fill="#766C65" transform="scale(2.4 2.4)" d="M68.9495 66.6243C69.4493 64.7112 70.6978 65.613 71.9313 64.8411C72.2492 64.6422 72.6063 64.1843 72.8846 63.9134L73.6584 64.5784L73.1275 65.5496C72.4724 66.7221 71.8388 67.9434 71.0833 69.0533C70.5121 68.1638 71.2185 67.5259 70.7179 66.6157C70.2641 66.7167 69.8858 67.0701 69.5225 67.346L69.059 67.1279L68.9495 66.6243Z"/>
	<path fill="#83777B" transform="scale(2.4 2.4)" d="M76.1678 64.487L76.6359 64.293C77.4834 64.6543 78.3286 64.9964 79.1145 65.4819L79.2669 65.9568L78.9729 65.9824C78.9975 66.9128 78.9919 67.8116 79.2809 68.7061L78.9834 68.7709C78.1404 68.233 77.9831 67.6012 77.6329 66.6785L77.1281 66.8515L76.7149 66.1897C76.7869 66.049 76.8115 65.9619 76.8298 65.801C76.8976 65.2025 76.525 64.9357 76.1678 64.487Z"/>
	<path fill="#BAADAD" transform="scale(2.4 2.4)" d="M73.4021 66.0214C74.0979 65.6473 74.6871 65.2468 75.5074 65.4212C75.9162 65.6659 76.3362 65.8996 76.7149 66.1897L77.1281 66.8515C76.6528 67.5918 76.2431 68.2274 75.316 68.4174C74.5908 68.566 73.8238 68.6304 73.0887 68.729C73.1188 67.7939 73.1966 66.9355 73.4021 66.0214Z"/>
	<path fill="#3D3F3F" transform="scale(2.4 2.4)" d="M78.9729 65.9824L79.2669 65.9568C79.7791 66.336 80.2097 66.6373 80.4748 67.2405C79.9889 67.6947 79.7997 68.3945 79.2809 68.7061C78.9919 67.8116 78.9975 66.9128 78.9729 65.9824Z"/>
	<path fill="#47404A" transform="scale(2.4 2.4)" d="M69.059 67.1279L69.5225 67.346C69.8858 67.0701 70.2641 66.7167 70.7179 66.6157C71.2185 67.5259 70.5121 68.1638 71.0833 69.0533C70.2909 69.6278 70.2371 70.4035 69.3223 70.9612L68.9272 70.8372C68.7631 69.533 68.9803 68.421 69.059 67.1279Z"/>
	<path fill="#47404A" transform="scale(2.4 2.4)" d="M77.1281 66.8515L77.6329 66.6785C77.9831 67.6012 78.1404 68.233 78.9834 68.7709C78.6355 69.0426 78.3188 69.435 78.0085 69.7537C76.9026 70.0755 75.964 68.8141 74.7589 68.7994C74.2021 68.7926 73.6455 68.7506 73.0887 68.729C73.8238 68.6304 74.5908 68.566 75.316 68.4174C76.2431 68.2274 76.6528 67.5918 77.1281 66.8515Z"/>
	<path fill="#595F6A" transform="scale(2.4 2.4)" d="M62.5668 69.9563C61.6672 70.0051 60.8159 70.0841 59.9364 69.8397C59.3361 69.3237 59.3199 69.2155 59.1199 68.4411C59.4692 68.3931 59.8183 68.3591 60.1693 68.4127C61.1986 68.57 61.9582 69.1387 62.5668 69.9563Z"/>
	<path fill="#9C8DA2" transform="scale(2.4 2.4)" d="M121.948 73.5746C122.54 73.5226 123.314 73.372 123.819 73.055C125.026 72.2971 125.027 70.2563 125.329 68.9814C126.352 70.9811 127.535 71.1192 129.18 72.3857C128.698 72.8938 128.319 73.3892 127.961 73.9914C126.344 73.2 123.75 73.6796 121.946 73.7726L121.948 73.5746Z"/>
	<path fill="#9C8DA2" transform="scale(2.4 2.4)" d="M24.7577 69.5834C25.9286 70.7794 26.2365 72.725 27.3955 73.941C25.8896 73.5885 24.3152 73.9302 22.8992 73.559C22.0608 73.3393 21.8575 72.773 21.4418 72.0569C22.8314 71.8437 23.8325 70.5478 24.7577 69.5834Z"/>
	<path fill="#BAADAD" transform="scale(2.4 2.4)" d="M17.1419 73.3853C18.5926 73.1107 20.04 72.5226 21.4418 72.0569C21.8575 72.773 22.0608 73.3393 22.8992 73.559C24.3152 73.9302 25.8896 73.5885 27.3955 73.941L27.8624 74.0254L28.1727 74.9836C25.7117 75.0662 23.2389 75.0191 20.7763 75.0179C19.9103 74.8991 19.0784 75.0863 18.2277 75.0065C17.6293 74.9505 17.4144 74.8458 17.0405 74.4075L17.1419 73.3853Z"/>
	<path fill="#5F61A5" transform="scale(2.4 2.4)" d="M70.9346 73.79C72.1661 73.0654 73.8361 72.83 75.2192 72.4914C77.3992 73.2437 80.132 73.5938 81.9288 75.1566L82.0325 75.6879C81.3918 75.2455 80.7629 74.7636 80.0271 74.4923L79.6246 74.6979L80.2282 74.3577L79.7921 74.9213C80.3425 75.2957 80.4609 75.314 80.6267 75.9585L79.7394 75.3394C79.099 74.9718 78.4284 74.5613 77.7361 74.3032C75.7906 73.5778 73.351 73.8219 71.4965 74.6678L70.9346 73.79Z"/>
	<path fill="#BAADAD" transform="scale(2.4 2.4)" d="M127.961 73.9914C128.319 73.3892 128.698 72.8938 129.18 72.3857C132.612 73.4252 135.911 74.0734 139.491 74.2253L139.647 74.7423L139.619 74.2335L139.882 74.6448L139.872 74.2615L140.234 74.4699C138.678 75.2707 137.085 75.2956 135.479 75.8549C133.538 75.4103 131.566 75.324 129.593 75.0998C129.084 74.5916 128.606 74.301 127.961 73.9914Z"/>
	<path fill="#9C8DA2" transform="scale(2.4 2.4)" d="M18.7767 76.3915C16.4705 76.0422 12.0331 75.8723 10.1611 74.5846C11.3356 73.972 15.0225 74.1993 17.1419 73.3853L17.0405 74.4075C17.4144 74.8458 17.6293 74.9505 18.2277 75.0065C19.0784 75.0863 19.9103 74.8991 20.7763 75.0179C20.1946 75.1344 19.6338 75.2428 19.0869 75.4824L18.7767 76.3915Z"/>
	<path fill="#BAADAD" transform="scale(2.4 2.4)" d="M121.946 73.7726C123.75 73.6796 126.344 73.2 127.961 73.9914C128.606 74.301 129.084 74.5916 129.593 75.0998C127.086 74.9139 124.5 75.0058 121.983 74.9728C121.779 74.5249 121.85 74.2363 121.946 73.7726Z"/>
	<path fill="#47404A" transform="scale(2.4 2.4)" d="M48.1504 77.01C48.1521 76.9889 48.1522 76.9676 48.1556 76.9467C48.2901 76.1056 48.9186 74.7652 49.6038 74.2471C50.3358 74.0759 50.5896 74.2679 51.2538 74.5533C50.8921 75.0366 50.4004 75.6016 50.4789 76.2457C50.5105 76.5052 50.5922 76.7584 50.6753 77.0051C51.4614 77.0534 52.3081 77.039 53.0519 77.3174C53.2387 77.6452 53.4266 77.9078 53.6736 78.193L50.2576 79.1808L48.4399 81.5276C48.1579 81.1506 47.7329 81.0741 47.3005 80.9007C47.1218 79.5133 48.5839 78.554 48.1504 77.01Z"/>
	<path fill="#5F61A5" transform="scale(2.4 2.4)" d="M67.2995 75.9316C68.5099 75.0738 69.4779 74.21 70.9346 73.79L71.4965 74.6678C70.0283 75.2508 69.2141 76.5729 67.8579 77.2679L67.2995 75.9316Z"/>
	<path fill="#3D3F3F" transform="scale(2.4 2.4)" d="M67.8579 77.2679C69.2141 76.5729 70.0283 75.2508 71.4965 74.6678C73.351 73.8219 75.7906 73.5778 77.7361 74.3032C78.4284 74.5613 79.099 74.9718 79.7394 75.3394L78.9134 75.7659C78.6911 75.6471 78.462 75.5396 78.2188 75.4704C76.1929 74.8942 73.4295 74.521 71.5199 75.5488C70.5336 76.0202 69.8962 76.197 69.4921 77.3004C69.1976 78.2988 68.2054 78.951 67.3319 79.4212C66.7619 79.7281 66.4453 79.8915 65.8142 79.715C66.4175 78.7556 66.9438 77.9557 67.8579 77.2679Z"/>
	<path fill="#595F6A" transform="scale(2.4 2.4)" d="M51.2538 74.5533C51.8446 74.8422 52.7485 74.907 53.3789 74.6651C53.4096 74.6533 53.4397 74.6399 53.47 74.6273C53.8067 75.1115 54.3493 75.7044 54.3269 76.3168C53.1075 76.0969 51.9459 75.8284 50.7871 76.4232L50.6753 77.0051C50.5922 76.7584 50.5105 76.5052 50.4789 76.2457C50.4004 75.6016 50.8921 75.0366 51.2538 74.5533Z"/>
	<path fill="#AD957A" transform="scale(2.4 2.4)" d="M81.9288 75.1566C83.6724 76.0574 85.4446 77.6085 86.2368 79.438L85.8552 80.3083L85.2584 80.4892C84.7661 79.8839 84.2576 79.9207 83.5077 79.8138L83.2632 79.2092C83.6269 77.6499 81.3527 77.2371 80.6267 75.9585C80.4609 75.314 80.3425 75.2957 79.7921 74.9213L80.2282 74.3577L79.6246 74.6979L80.0271 74.4923C80.7629 74.7636 81.3918 75.2455 82.0325 75.6879L81.9288 75.1566Z"/>
	<path fill="#47404A" transform="scale(2.4 2.4)" d="M60.9535 76.064C59.8363 76.2467 58.1607 76.5328 57.1467 75.9335L57.028 75.4128L57.4578 74.8446C58.6963 74.7065 60.3232 74.5521 61.4522 75.1558L61.5233 75.5645L60.9535 76.064Z"/>
	<path fill="#52585E" transform="scale(2.4 2.4)" d="M71.5199 75.5488C73.4295 74.521 76.1929 74.8942 78.2188 75.4704C78.462 75.5396 78.6911 75.6471 78.9134 75.7659C80.298 76.8901 79.6328 77.6629 80.3373 78.8401L79.8966 79.9831C79.7578 79.5837 79.5083 79.2522 79.2732 78.9045L78.931 79.0268L78.678 79.9226C78.6506 79.7685 78.6094 79.6217 78.5676 79.4714C78.4662 79.1067 78.3512 78.7321 78.1479 78.409C77.5586 77.4719 76.3563 76.2343 75.2412 76.0032C74.5079 75.8512 73.1351 77.293 72.4661 77.7314C71.7555 76.9873 72.1623 76.3118 71.5199 75.5488Z"/>
	<defs>
		<linearGradient id="gradient_11" gradientUnits="userSpaceOnUse" x1="30.421686" y1="101.93427" x2="41.415462" y2="95.398735">
			<stop offset="0" stop-color="#3A3A40"/>
			<stop offset="1" stop-color="#56505E"/>
		</linearGradient>
	</defs>
	<path fill="url(#gradient_11)" transform="scale(2.4 2.4)" d="M20.7763 75.0179C23.2389 75.0191 25.7117 75.0662 28.1727 74.9836C28.0863 83.3674 30.6298 90.3743 34.3742 97.7451C35.5463 99.7478 36.9313 102.533 38.6897 104.072C42.5306 108.287 46.3639 111.648 50.9695 114.98C51.7245 115.526 53.0152 116.683 53.9294 116.758C54.0871 116.771 54.251 116.637 54.3883 116.561C55.686 118.556 57.1733 120.264 57.0726 122.749C55.1295 120.478 50.9827 119.026 48.3671 117.494Q45.4749 115.824 42.948 113.64C42.928 113.629 42.9087 113.617 42.8881 113.608C42.8541 113.593 42.8188 113.581 42.7845 113.566C41.728 113.122 39.9076 113.865 38.7575 114.057L38.2664 113.573L38.6384 113.231L38.5436 112.778L37.2629 113.086C37.2404 112.746 37.7349 112.09 37.9195 111.771C38.0578 111.562 38.3251 111.363 38.5089 111.186C38.8459 111.369 39.1273 111.31 39.4891 111.264C40.0459 110.861 40.1564 110.811 40.3541 110.152L39.9811 109.63C39.7248 108.944 39.2414 108.674 38.6548 108.301C37.797 107.496 36.8557 106.35 35.6644 106.211C35.127 106.706 35.2016 107.183 35.1119 107.882C35.1422 104.048 30.4732 98.5639 28.8821 94.8678C26.6814 89.7556 25.6389 84.2405 24.5574 78.8118C22.6915 77.7497 20.8118 77.0609 18.7767 76.3915L19.0869 75.4824C19.6338 75.2428 20.1946 75.1344 20.7763 75.0179Z"/>
	<path fill="#47404A" transform="scale(2.4 2.4)" d="M121.983 74.9728C124.5 75.0058 127.086 74.9139 129.593 75.0998C131.566 75.324 133.538 75.4103 135.479 75.8549C132.496 76.1048 127.712 76.6217 125.675 79.0611C124.56 80.3964 124.298 85.9945 123.698 87.9824Q122.285 92.7518 120.04 97.1905C118.691 99.8213 115.277 104.347 114.777 106.982C113.842 107.285 110.839 107.934 110.344 108.552C110.723 110.767 116.505 113.461 115.498 115.903C114.465 116.398 114.308 115.957 113.26 115.908C111.811 114.993 110.05 113.457 108.263 113.851C105.286 114.507 102.314 117.07 99.6539 118.534C97.7343 119.59 95.5186 120.479 93.6981 121.67C93.3159 119.744 94.2186 118.006 95.0427 116.335C95.1318 116.36 95.2181 116.376 95.3107 116.382C98.8501 116.613 108.3 107.173 110.951 104.56C113.161 102.265 114.737 99.3563 116.197 96.5536C118.311 93.7494 119.589 88.919 120.51 85.5551C120.799 84.499 120.94 83.0175 121.481 82.0825C122.198 79.9302 122.001 77.2107 121.983 74.9728Z"/>
	<path fill="#47404A" transform="scale(2.4 2.4)" d="M79.7394 75.3394L80.6267 75.9585C81.3527 77.2371 83.6269 77.6499 83.2632 79.2092L82.3001 79.1834L80.3373 78.8401C79.6328 77.6629 80.298 76.8901 78.9134 75.7659L79.7394 75.3394Z"/>
	<defs>
		<linearGradient id="gradient_12" gradientUnits="userSpaceOnUse" x1="113.21955" y1="93.017319" x2="98.947548" y2="89.029373">
			<stop offset="0" stop-color="#3D3F3F"/>
			<stop offset="1" stop-color="#595F6A"/>
		</linearGradient>
	</defs>
	<path fill="url(#gradient_12)" transform="scale(2.4 2.4)" d="M101.84 75.1715C101.887 75.7832 101.897 76.5839 102.149 77.1458C103.047 79.1453 106.5 82.9061 108.152 84.5396C109.231 85.725 111.18 86.8593 111.405 88.4702C110.8 90.8419 111.372 93.5424 111.154 95.9778C110.842 97.6909 111.005 99.2594 111.289 100.966C110.942 102.181 111.145 103.264 110.355 104.299L109.627 102.298L108.649 100.819C109.761 98.7032 108.286 93.9385 107.945 91.5604C107.839 90.819 107.659 90.482 107.069 90.0384C107.204 89.9637 107.234 89.8144 107.298 89.6761C106.59 86.6042 103.548 83.6259 101.587 81.2335C101.889 80.0793 101.061 79.5419 101.14 78.5299C101.235 77.306 101.958 76.5988 101.84 75.1715Z"/>
	<path fill="#AD957A" transform="scale(2.4 2.4)" d="M63.8372 79.7496C64.5083 77.9472 65.623 76.8421 67.2995 75.9316L67.8579 77.2679C66.9438 77.9557 66.4175 78.7556 65.8142 79.715L65.1255 80.506L64.4876 80.8174C64.1084 80.5431 63.9987 80.1705 63.8372 79.7496Z"/>
	<path fill="#83777B" transform="scale(2.4 2.4)" d="M69.4921 77.3004C69.8962 76.197 70.5336 76.0202 71.5199 75.5488C72.1623 76.3118 71.7555 76.9873 72.4661 77.7314L71.1664 78.3067L69.4921 77.3004Z"/>
	<path fill="#52585E" transform="scale(2.4 2.4)" d="M50.6753 77.0051L50.7871 76.4232C51.9459 75.8284 53.1075 76.0969 54.3269 76.3168C53.9202 76.6586 53.5111 77.0512 53.0519 77.3174C52.3081 77.039 51.4614 77.0534 50.6753 77.0051Z"/>
	<path fill="#BAADAD" transform="scale(2.4 2.4)" d="M72.4661 77.7314C73.1351 77.293 74.5079 75.8512 75.2412 76.0032C76.3563 76.2343 77.5586 77.4719 78.1479 78.409C78.3512 78.7321 78.4662 79.1067 78.5676 79.4714C78.6094 79.6217 78.6506 79.7685 78.678 79.9226L78.18 79.9226C78.1282 81.0368 77.9464 82.3237 78.1924 83.4122C78.1165 83.964 78.0005 84.5367 77.9717 85.0916L77.9074 85.178C77.0598 86.3264 77.3462 87.7783 76.5894 88.6805C75.9862 88.6284 75.4955 88.2404 75.003 87.9175C75.5578 86.6426 76.3227 85.4323 77.0326 84.2396C77.0333 82.5855 77.0226 80.8501 76.3542 79.3106C75.9321 78.6016 75.8343 78.3226 75.0751 77.9426C74.4856 78.1247 74.1405 78.2348 73.8416 78.835C73.3938 79.7344 72.8807 81.0423 72.9026 82.0383L72.4229 81.4671L72.343 81.866C71.9675 81.1445 71.774 80.5099 71.6102 79.7207L71.1664 78.3067L72.4661 77.7314Z"/>
	<path fill="#3D3F3F" transform="scale(2.4 2.4)" d="M42.2822 84.197C44.3734 81.9761 46.1657 79.3489 48.1504 77.01C48.5839 78.554 47.1218 79.5133 47.3005 80.9007C47.7329 81.0741 48.1579 81.1506 48.4399 81.5276C47.3486 83.0063 46.1282 84.286 44.8394 85.5908L44.3754 84.5238C44.2369 84.6218 43.9803 84.6106 43.8094 84.6305L43.896 83.9112C43.6204 84.0744 43.3751 84.2349 43.1298 84.4417L43.0641 84.4978L42.2822 84.197Z"/>
	<path fill="#766C65" transform="scale(2.4 2.4)" d="M65.8142 79.715C66.4453 79.8915 66.7619 79.7281 67.3319 79.4212C68.2054 78.951 69.1976 78.2988 69.4921 77.3004L71.1664 78.3067L71.6102 79.7207C70.7792 79.6309 69.2094 79.2799 68.5246 79.8346C68.1974 80.0996 67.8532 80.6159 67.6564 80.9801L67.4815 81.0447L66.7376 81.2085C66.1783 81.0304 65.6535 80.7594 65.1255 80.506L65.8142 79.715Z"/>
	<path fill="#A3664D" transform="scale(2.4 2.4)" d="M72.9026 82.0383C72.8807 81.0423 73.3938 79.7344 73.8416 78.835C74.1405 78.2348 74.4856 78.1247 75.0751 77.9426C75.8343 78.3226 75.9321 78.6016 76.3542 79.3106C77.0226 80.8501 77.0333 82.5855 77.0326 84.2396C76.3227 85.4323 75.5578 86.6426 75.003 87.9175L74.545 87.9722C74.7524 87.0842 72.8278 83.7961 72.9026 82.0383Z"/>
	<path fill="#5F61A5" transform="scale(2.4 2.4)" d="M50.2576 79.1808L53.6736 78.193C55.7757 79.5655 60.3921 76.7827 61.1985 78.5279C59.7915 81.1342 57.4634 83.0474 56.0613 85.7559C55.3559 87.46 54.8487 89.2409 54.1445 90.9338C52.819 92.74 51.2056 94.4953 49.5817 96.0384C50.284 97.0951 50.9743 97.8373 50.7134 99.1661C50.505 100.228 49.9243 101.076 49.8827 102.189C48.3476 101.622 47.7549 102.583 46.3995 102.725C46.3709 102.692 45.0936 97.8446 44.7862 97.061C44.0207 97.0757 43.3257 97.1046 42.589 96.8526C41.4582 95.4436 44.1884 93.6423 43.9373 91.7683C43.8191 90.8856 43.1925 90.4713 42.5386 89.9589C43.2833 88.4746 44.0025 87.0264 44.8394 85.5908C46.1282 84.286 47.3486 83.0063 48.4399 81.5276L50.2576 79.1808Z"/>
	<path fill="#5F61A5" transform="scale(2.4 2.4)" d="M98.2928 77.7743C99.4912 78.8005 100.526 80.0669 101.587 81.2335C103.548 83.6259 106.59 86.6042 107.298 89.6761C107.234 89.8144 107.204 89.9637 107.069 90.0384L105.68 90.212C105.374 90.6437 105.255 90.8438 105.376 91.3991C105.732 93.0313 107.692 93.7992 106.817 95.6393C105.944 96.2198 104.999 96.0776 103.991 96.0908C104.12 97.6823 104.544 99.8396 104.268 101.384C103.655 102.031 102.545 101.733 101.719 102.317C100.543 103.147 100.426 104.177 98.6958 105.332C99.0526 104.092 99.607 102.938 99.9111 101.681C100.167 99.5941 99.966 97.4664 99.7918 95.382C97.6337 93.246 96.2227 90.8856 94.9215 88.176C94.0361 84.2653 90.7592 82.004 89.1251 78.5983C89.9259 77.0131 94.1611 78.8558 95.6265 78.7406C96.5174 78.6706 97.4855 78.1375 98.2928 77.7743Z"/>
	<path fill="#47404A" transform="scale(2.4 2.4)" d="M78.678 79.9226L78.931 79.0268L79.2732 78.9045C79.5083 79.2522 79.7578 79.5837 79.8966 79.9831C79.9682 80.6107 79.9511 81.4055 80.1108 82.0016C80.3457 82.8784 80.8058 83.6738 80.8566 84.5948C79.8145 84.184 79.3159 83.561 78.1924 83.4122C77.9464 82.3237 78.1282 81.0368 78.18 79.9226L78.678 79.9226Z"/>
	<path fill="#5F61A5" transform="scale(2.4 2.4)" d="M80.3373 78.8401L82.3001 79.1834L82.2743 79.7908C81.7397 80.3908 80.9216 81.0014 80.976 81.8749C81.0648 83.3018 82.5283 84.9565 82.9701 86.4138C82.4798 86.9836 82.0028 87.5812 81.4758 88.117C82.1899 88.7272 82.582 88.9218 82.8361 89.8495L82.6566 90.5194C82.1403 90.6937 82.0766 90.5816 81.5955 90.3636C80.9993 89.7885 81.2344 89.1561 80.9062 88.4952C79.7254 89.362 78.5454 90.0626 77.7439 91.3145L77.8496 91.846C78.7385 92.3953 80.489 93.5027 80.7449 94.592C80.7667 94.6845 80.7654 94.6942 80.774 94.7783C80.4247 94.6975 80.0457 94.4799 79.7135 94.3331C78.9069 92.7064 78.5543 93.6734 77.3869 93.0841C77.2645 93.0223 77.0499 92.1534 76.9945 91.9715C77.0568 91.0132 76.935 90.0235 76.8662 89.0659C77.1567 89.0715 77.4612 89.0701 77.7469 89.013C78.7721 88.8079 80.0106 88.0123 80.5909 87.1543C80.6964 86.4406 80.7047 86.4397 80.2999 85.8445C79.5253 85.3998 78.8394 85.244 77.9717 85.0916C78.0005 84.5367 78.1165 83.964 78.1924 83.4122C79.3159 83.561 79.8145 84.184 80.8566 84.5948C80.8058 83.6738 80.3457 82.8784 80.1108 82.0016C79.9511 81.4055 79.9682 80.6107 79.8966 79.9831L80.3373 78.8401Z"/>
	<path fill="#52585E" transform="scale(2.4 2.4)" d="M82.3001 79.1834L83.2632 79.2092L83.5077 79.8138C84.2576 79.9207 84.7661 79.8839 85.2584 80.4892L85.2279 80.722C85.1586 80.8006 85.1869 80.7606 85.13 80.8636C84.9122 81.2579 84.6957 81.7098 84.313 81.9685C83.6225 82.4353 82.9734 82.5557 82.1816 82.4074C81.815 81.9839 81.7647 81.8965 81.7445 81.3367C81.9025 81.2478 82.0653 81.1552 82.205 81.0386C82.6667 80.6535 82.7758 80.5477 82.811 79.9502L82.2743 79.7908L82.3001 79.1834Z"/>
	<path fill="#766C65" transform="scale(2.4 2.4)" d="M86.2368 79.438C87.7236 82.9092 88.8199 85.5582 88.9357 89.4023C88.9244 89.3771 88.9125 89.3522 88.9018 89.3267C88.6105 88.6353 88.2956 87.161 88.421 86.4239C88.5113 86.7277 88.1927 89.3268 88.1726 89.9152L88.0571 89.8395C88.0758 88.7463 88.0245 87.763 87.8037 86.6908C86.9858 85.491 87.364 83.6154 86.4113 82.7524C86.0889 81.972 85.7941 81.3629 85.2279 80.722L85.2584 80.4892L85.8552 80.3083L86.2368 79.438Z"/>
	<path fill="#AD957A" transform="scale(2.4 2.4)" d="M120.267 79.1581C120.493 80.2372 120.657 81.2745 121.481 82.0825C120.94 83.0175 120.799 84.499 120.51 85.5551C119.589 88.919 118.311 93.7494 116.197 96.5536L114.959 96.0965L115.74 95.897L115.915 95.4746Q115.845 95.3986 115.777 95.3207C115.615 95.1349 115.312 94.7776 115.328 94.521C115.382 93.6681 116.538 91.7345 116.891 90.8494C118.296 87.3309 120.015 82.9492 120.267 79.1581Z"/>
	<path fill="#83777B" transform="scale(2.4 2.4)" d="M62.5664 82.1947C62.9334 81.3436 63.2631 80.4862 63.8372 79.7496C63.9987 80.1705 64.1084 80.5431 64.4876 80.8174L64.5256 80.9587C63.9904 81.6499 63.7746 82.7939 63.1924 83.3287C62.8848 82.9958 62.7391 82.6069 62.5664 82.1947Z"/>
	<path fill="#3D3F3F" transform="scale(2.4 2.4)" d="M67.6564 80.9801C67.8532 80.6159 68.1974 80.0996 68.5246 79.8346C69.2094 79.2799 70.7792 79.6309 71.6102 79.7207C71.774 80.5099 71.9675 81.1445 72.343 81.866C71.7479 83.1169 70.2858 84.0626 69.3126 85.0372C69.05 84.3774 68.8251 83.7092 68.6025 83.0353C68.2362 82.767 67.8475 81.4505 67.6564 80.9801Z"/>
	<path fill="#47404A" transform="scale(2.4 2.4)" d="M82.2743 79.7908L82.811 79.9502C82.7758 80.5477 82.6667 80.6535 82.205 81.0386C82.0653 81.1552 81.9025 81.2478 81.7445 81.3367C81.7647 81.8965 81.815 81.9839 82.1816 82.4074C82.9734 82.5557 83.6225 82.4353 84.313 81.9685C84.6957 81.7098 84.9122 81.2579 85.13 80.8636C85.1869 80.7606 85.1586 80.8006 85.2279 80.722C85.7941 81.3629 86.0889 81.972 86.4113 82.7524C86.0191 82.4259 85.5115 82.0904 85.336 81.5961C84.8025 82.738 84.4417 83.9767 83.8864 85.0966C83.6353 85.603 83.0624 85.8174 82.9701 86.4138C82.5283 84.9565 81.0648 83.3018 80.976 81.8749C80.9216 81.0014 81.7397 80.3908 82.2743 79.7908Z"/>
	<path fill="#52585E" transform="scale(2.4 2.4)" d="M64.4876 80.8174L65.1255 80.506C65.6535 80.7594 66.1783 81.0304 66.7376 81.2085C66.5199 81.7212 66.3244 82.3284 65.9993 82.7782C65.2904 82.3295 65.2062 81.4804 64.5256 80.9587L64.4876 80.8174Z"/>
	<defs>
		<linearGradient id="gradient_13" gradientUnits="userSpaceOnUse" x1="61.45063" y1="88.651306" x2="68.393715" y2="86.993919">
			<stop offset="0" stop-color="#27292B"/>
			<stop offset="1" stop-color="#47404A"/>
		</linearGradient>
	</defs>
	<path fill="url(#gradient_13)" transform="scale(2.4 2.4)" d="M64.5256 80.9587C65.2062 81.4804 65.2904 82.3295 65.9993 82.7782C66.5518 82.8313 67.0451 82.8074 67.5954 82.7381C67.9098 82.2043 67.6213 81.636 67.4815 81.0447L67.6564 80.9801C67.8475 81.4505 68.2362 82.767 68.6025 83.0353C67.9415 83.8869 67.2581 85.585 67.3951 86.6722C67.4798 87.3439 67.9363 88.132 67.9664 88.7447C68.0258 89.9557 66.5834 90.1627 67.4592 91.5601L67.9657 91.8662C68.0297 92.3106 68.0048 92.9453 68.3627 93.231C68.5805 93.4049 68.8664 93.509 69.121 93.6184C67.7045 94.3632 65.0588 94.783 63.4942 94.277Q63.0366 94.1243 62.617 93.8863L62.7314 93.6003C62.6749 93.4643 62.6231 93.3168 62.5521 93.1882C61.5813 91.4275 61.8961 88.1535 62.1586 86.1776C63.0281 85.4957 62.7425 84.303 63.1924 83.3287C63.7746 82.7939 63.9904 81.6499 64.5256 80.9587Z"/>
	<path fill="#47404A" transform="scale(2.4 2.4)" d="M66.7376 81.2085L67.4815 81.0447C67.6213 81.636 67.9098 82.2043 67.5954 82.7381C67.0451 82.8074 66.5518 82.8313 65.9993 82.7782C66.3244 82.3284 66.5199 81.7212 66.7376 81.2085Z"/>
	<path fill="#8F87CF" transform="scale(2.4 2.4)" d="M72.343 81.866L72.4229 81.4671L72.9026 82.0383C72.8278 83.7961 74.7524 87.0842 74.545 87.9722L74.2029 88.0417C73.4202 87.1709 73.0821 85.7827 72.1378 85.1559C71.4654 85.0537 71.0732 85.188 70.4592 85.462C69.6261 85.6559 69.2844 86.084 68.3296 85.9966L68.2863 85.6102C68.5818 85.3565 68.964 85.2065 69.3126 85.0372C70.2858 84.0626 71.7479 83.1169 72.343 81.866Z"/>
	<path fill="#47404A" transform="scale(2.4 2.4)" d="M82.9701 86.4138C83.0624 85.8174 83.6353 85.603 83.8864 85.0966C84.4417 83.9767 84.8025 82.738 85.336 81.5961C85.5115 82.0904 86.0191 82.4259 86.4113 82.7524C87.364 83.6154 86.9858 85.491 87.8037 86.6908C87.1678 86.9943 86.4661 87.1912 86.203 87.9243C85.9531 88.6204 86.1239 89.0084 86.4193 89.6164C86.8265 89.8716 87.1709 90.0669 87.6679 89.9808C87.8055 89.957 87.9334 89.9017 88.0571 89.8395L88.1726 89.9152C88.0544 90.241 87.835 90.6684 87.8375 91.0133C87.0609 91.0945 86.6383 91.0704 86.1187 91.7165C84.8829 93.2532 83.258 96.1944 81.3859 96.8315C80.3971 96.4858 80.2159 96.3845 79.2137 96.8628Q79.1371 96.8992 79.0615 96.9379L79.058 96.3882C79.7406 95.6546 79.7784 95.1773 80.774 94.7783C80.7654 94.6942 80.7667 94.6845 80.7449 94.592C80.489 93.5027 78.7385 92.3953 77.8496 91.846L77.7439 91.3145C78.5454 90.0626 79.7254 89.362 80.9062 88.4952C81.2344 89.1561 80.9993 89.7885 81.5955 90.3636C82.0766 90.5816 82.1403 90.6937 82.6566 90.5194L82.8361 89.8495C82.582 88.9218 82.1899 88.7272 81.4758 88.117C82.0028 87.5812 82.4798 86.9836 82.9701 86.4138Z"/>
	<path fill="#766C65" transform="scale(2.4 2.4)" d="M61.2608 86.2007C61.4594 84.8369 61.6841 83.3076 62.5664 82.1947C62.7391 82.6069 62.8848 82.9958 63.1924 83.3287C62.7425 84.303 63.0281 85.4957 62.1586 86.1776L61.2608 86.2007Z"/>
	<path fill="#6F82B9" transform="scale(2.4 2.4)" d="M67.4592 91.5601C66.5834 90.1627 68.0258 89.9557 67.9664 88.7447C67.9363 88.132 67.4798 87.3439 67.3951 86.6722C67.2581 85.585 67.9415 83.8869 68.6025 83.0353C68.8251 83.7092 69.05 84.3774 69.3126 85.0372C68.964 85.2065 68.5818 85.3565 68.2863 85.6102L68.3296 85.9966C69.2844 86.084 69.6261 85.6559 70.4592 85.462C70.7818 85.9012 71.1065 86.2679 71.5124 86.6316C71.3464 86.8246 70.5023 87.3649 70.5143 87.4903C70.6072 88.46 71.1413 88.8526 71.1124 89.9602C70.4653 89.5736 70.1236 89.2608 69.351 89.2824C69.1641 89.5847 68.9726 89.8774 68.8332 90.2054C68.5268 90.9264 68.1049 91.1774 67.4592 91.5601Z"/>
	<path fill="#52585E" transform="scale(2.4 2.4)" d="M39.6066 85.687C40.5344 85.4296 41.4644 84.7107 42.2822 84.197L43.0641 84.4978L43.1298 84.4417C43.3751 84.2349 43.6204 84.0744 43.896 83.9112L43.8094 84.6305C43.9803 84.6106 44.2369 84.6218 44.3754 84.5238L44.8394 85.5908C44.0025 87.0264 43.2833 88.4746 42.5386 89.9589C41.8383 92.8995 40.8701 95.5832 41.0531 98.6461L39.5886 99.0226C39.492 98.0658 39.5072 96.7743 39.0223 95.9404C39.015 93.6622 38.1062 87.3883 39.6066 85.687ZM43.4384 84.9041C43.0083 85.3725 42.2891 85.9659 42.2487 86.6269C42.3809 86.7961 42.5019 87.0096 42.7142 87.078C43.1759 86.5525 43.6459 86.0735 43.8679 85.3946C43.7338 85.2182 43.6188 85.0351 43.4384 84.9041Z"/>
	<path fill="#5F61A5" transform="scale(2.4 2.4)" d="M108.731 83.776C109.863 84.4891 111.402 85.2995 111.721 86.7186C111.853 87.3059 111.603 87.9232 111.405 88.4702C111.18 86.8593 109.231 85.725 108.152 84.5396L108.731 83.776Z"/>
	<path fill="#595F6A" transform="scale(2.4 2.4)" d="M42.7142 87.078C42.5019 87.0096 42.3809 86.7961 42.2487 86.6269C42.2891 85.9659 43.0083 85.3725 43.4384 84.9041C43.6188 85.0351 43.7338 85.2182 43.8679 85.3946C43.6459 86.0735 43.1759 86.5525 42.7142 87.078Z"/>
	<path fill="#5F61A5" transform="scale(2.4 2.4)" d="M70.4592 85.462C71.0732 85.188 71.4654 85.0537 72.1378 85.1559C73.0821 85.7827 73.4202 87.1709 74.2029 88.0417C74.0062 88.2814 73.7716 88.6569 73.4914 88.7907C72.6556 90.0803 73.0298 92.0675 73.1758 93.5285C72.2987 93.4439 71.6634 93.2593 70.9165 93.8714C70.5733 94.1526 70.2487 94.4608 69.9261 94.7652L69.7323 94.7872L69.4528 94.3888C70.1781 93.4635 71.1767 92.4323 71.7009 91.3949C71.9657 90.871 72.0067 90.6752 71.8209 90.1353L71.1124 89.9602C71.1413 88.8526 70.6072 88.46 70.5143 87.4903C70.5023 87.3649 71.3464 86.8246 71.5124 86.6316C71.1065 86.2679 70.7818 85.9012 70.4592 85.462Z"/>
	<path fill="#61362A" transform="scale(2.4 2.4)" d="M75.003 87.9175C75.4955 88.2404 75.9862 88.6284 76.5894 88.6805C77.3462 87.7783 77.0598 86.3264 77.9074 85.178L77.9717 85.0916C78.8394 85.244 79.5253 85.3998 80.2999 85.8445C80.7047 86.4397 80.6964 86.4406 80.5909 87.1543C80.0106 88.0123 78.7721 88.8079 77.7469 89.013C77.4612 89.0701 77.1567 89.0715 76.8662 89.0659C76.794 89.1639 76.7201 89.2564 76.6387 89.3472C76.1842 89.8544 75.7862 90.0457 75.1117 90.0735C74.3148 89.8252 73.9817 89.4203 73.4914 88.7907C73.7716 88.6569 74.0062 88.2814 74.2029 88.0417L74.545 87.9722L75.003 87.9175Z"/>
	<path fill="#3D3F3F" transform="scale(2.4 2.4)" d="M54.1445 90.9338C54.8487 89.2409 55.3559 87.46 56.0613 85.7559C56.5416 86.4955 57.1678 86.4837 57.6833 87.1728C57.1803 87.6002 56.4845 87.9778 56.3558 88.6306L56.9601 88.8827C55.8362 89.2648 55.0513 90.7937 54.1445 90.9338Z"/>
	<defs>
		<linearGradient id="gradient_14" gradientUnits="userSpaceOnUse" x1="65.062187" y1="80.962349" x2="83.873543" y2="101.73241">
			<stop offset="0" stop-color="#27292B"/>
			<stop offset="1" stop-color="#3D3F3F"/>
		</linearGradient>
	</defs>
	<path fill="url(#gradient_14)" transform="scale(2.4 2.4)" d="M58.6262 87.1515C58.9483 86.535 59.2237 85.8255 59.8595 85.4792C60.5213 85.6068 60.6319 85.8448 61.0864 86.3251C60.8674 89.5932 60.6369 94.3628 62.9312 96.9601C63.5102 97.6156 64.0778 98.0456 64.8877 98.3875C66.1628 99.8826 71.9859 103.092 73.9431 104.059C77.9335 103.743 82.1609 101.97 84.8363 98.9149C85.7209 97.9049 86.6054 96.438 86.793 95.0858C86.8596 94.6058 86.8161 94.0263 86.9788 93.5715C87.3728 92.4697 87.9297 92.359 87.8375 91.0133C87.835 90.6684 88.0544 90.241 88.1726 89.9152C88.1927 89.3268 88.5113 86.7277 88.421 86.4239C88.2956 87.161 88.6105 88.6353 88.9018 89.3267C88.9125 89.3522 88.9244 89.3771 88.9357 89.4023C89.0287 90.7331 89.2968 92.294 88.9996 93.5976L88.9312 93.6699C88.2049 94.4502 87.9327 95.1198 87.9643 96.1946C87.9703 96.3987 87.9936 96.5984 88.0229 96.8003C88.1961 95.9419 88.2818 94.9144 88.837 94.2111L88.7501 94.1795L89.4199 94.0685C89.5244 95.5245 87.7538 97.5652 88.1905 98.0757C85.9074 101.563 82.0767 104.353 78.2336 105.845L78.3224 105.443L78.0095 105.144C77.007 105.055 75.8129 105.579 74.8549 105.88C73.5123 105.25 69.6275 103.737 68.3264 104.088C68.2808 104.069 68.2349 104.05 68.1895 104.031C62.3359 101.494 60.8796 96.0369 58.7899 90.7802L58.4376 90.8046C57.9142 90.2731 57.9425 89.7941 57.8197 89.0772L58.2136 88.8953C58.6877 88.2475 58.6132 87.9253 58.6262 87.1515Z"/>
	<path fill="#47404A" transform="scale(2.4 2.4)" d="M61.2608 86.2007L62.1586 86.1776C61.8961 88.1535 61.5813 91.4275 62.5521 93.1882C62.6231 93.3168 62.6749 93.4643 62.7314 93.6003L62.617 93.8863C62.7877 95.8299 64.1701 96.7268 64.8877 98.3875C64.0778 98.0456 63.5102 97.6156 62.9312 96.9601C60.6369 94.3628 60.8674 89.5932 61.0864 86.3251L61.2608 86.2007Z"/>
	<path fill="#27292B" transform="scale(2.4 2.4)" d="M57.6833 87.1728L58.6262 87.1515C58.6132 87.9253 58.6877 88.2475 58.2136 88.8953L57.8197 89.0772L56.9601 88.8827L56.3558 88.6306C56.4845 87.9778 57.1803 87.6002 57.6833 87.1728Z"/>
	<path fill="#27292B" transform="scale(2.4 2.4)" d="M88.0571 89.8395C87.9334 89.9017 87.8055 89.957 87.6679 89.9808C87.1709 90.0669 86.8265 89.8716 86.4193 89.6164C86.1239 89.0084 85.9531 88.6204 86.203 87.9243C86.4661 87.1912 87.1678 86.9943 87.8037 86.6908C88.0245 87.763 88.0758 88.7463 88.0571 89.8395Z"/>
	<path fill="#3D3F3F" transform="scale(2.4 2.4)" d="M94.9215 88.176C96.2227 90.8856 97.6337 93.246 99.7918 95.382C99.966 97.4664 100.167 99.5941 99.9111 101.681C98.8072 101.738 97.901 101.3 96.9192 100.864C97.418 97.322 94.9212 93.8171 94.9727 92.9875C95.7066 93.3483 96.1181 94.5662 96.4566 95.2765C97.3866 95.4335 98.2896 95.5834 99.235 95.5979C99.2355 95.5812 96.4668 92.0606 96.1984 91.6776C95.4425 90.5992 94.6789 89.5538 94.9215 88.176ZM96.6668 95.9259C96.8814 96.5911 96.9359 97.0338 97.4779 97.5009C98.0337 97.4624 98.4135 97.3371 98.9103 97.0873L98.866 96.4313C98.2624 95.9099 97.4242 95.9666 96.6668 95.9259Z"/>
	<defs>
		<linearGradient id="gradient_15" gradientUnits="userSpaceOnUse" x1="63.257629" y1="109.19361" x2="49.606449" y2="108.49024">
			<stop offset="0" stop-color="#212D36"/>
			<stop offset="1" stop-color="#47404A"/>
		</linearGradient>
	</defs>
	<path fill="url(#gradient_15)" transform="scale(2.4 2.4)" d="M54.1445 90.9338C55.0513 90.7937 55.8362 89.2648 56.9601 88.8827L57.8197 89.0772C57.9425 89.7941 57.9142 90.2731 58.4376 90.8046L58.7899 90.7802C56.4325 92.3381 55.0066 96.9993 54.451 99.7254C53.9671 102.1 53.9768 106.414 55.3461 108.572C55.4025 108.661 55.4694 108.741 55.533 108.825C55.645 108.972 55.6674 109.079 55.6975 109.258L55.7627 109.311C56.1647 110.543 56.5355 111.671 57.2717 112.755C57.7512 114.225 58.1619 116.152 58.9949 117.45L58.951 118.455C58.8027 120.148 59.1395 121.551 60.0033 123.022C62.1707 126.588 63.9685 130.061 66.4624 133.464C62.8344 131.516 59.1148 126.309 57.0726 122.749C57.1733 120.264 55.686 118.556 54.3883 116.561C54.0795 115.588 53.9943 114.552 53.8651 113.543C53.6334 112.728 53.4652 111.697 52.9139 111.039C53.4257 109.031 50.8251 104.068 49.8827 102.189C49.9243 101.076 50.505 100.228 50.7134 99.1661C50.9743 97.8373 50.284 97.0951 49.5817 96.0384C51.2056 94.4953 52.819 92.74 54.1445 90.9338Z"/>
	<path fill="#3D3F3F" transform="scale(2.4 2.4)" d="M67.4592 91.5601C68.1049 91.1774 68.5268 90.9264 68.8332 90.2054C68.9726 89.8774 69.1641 89.5847 69.351 89.2824C70.1236 89.2608 70.4653 89.5736 71.1124 89.9602L71.8209 90.1353C72.0067 90.6752 71.9657 90.871 71.7009 91.3949C71.1767 92.4323 70.1781 93.4635 69.4528 94.3888L69.7323 94.7872C69.0465 95.5125 68.52 95.7895 67.5612 96.0553L67.3284 95.923C67.5094 95.2515 68.6657 94.2452 69.121 93.6184C68.8664 93.509 68.5805 93.4049 68.3627 93.231C68.0048 92.9453 68.0297 92.3106 67.9657 91.8662L67.4592 91.5601Z"/>
	<path fill="#4A332A" transform="scale(2.4 2.4)" d="M73.1758 93.5285C73.0298 92.0675 72.6556 90.0803 73.4914 88.7907C73.9817 89.4203 74.3148 89.8252 75.1117 90.0735C75.7862 90.0457 76.1842 89.8544 76.6387 89.3472C76.7201 89.2564 76.794 89.1639 76.8662 89.0659C76.935 90.0235 77.0568 91.0132 76.9945 91.9715C76.9693 92.7999 77.0636 93.744 76.5149 94.4191C76.4033 94.9753 76.2548 95.5484 76.2033 96.1126C76.1304 96.8317 76.1237 97.476 75.607 98.0344L75.1588 98.1025C74.6414 97.7105 74.4298 97.3454 74.1667 96.7574C74.0322 95.8236 73.8328 95.0378 73.464 94.1684L73.1758 93.5285Z"/>
	<path fill="#5F61A5" transform="scale(2.4 2.4)" d="M55.7627 109.311L55.6975 109.258C55.6674 109.079 55.645 108.972 55.533 108.825C55.4694 108.741 55.4025 108.661 55.3461 108.572C53.9768 106.414 53.9671 102.1 54.451 99.7254C55.0066 96.9993 56.4325 92.3381 58.7899 90.7802C60.8796 96.0369 62.3359 101.494 68.1895 104.031C68.2349 104.05 68.2808 104.069 68.3264 104.088C70.3419 105.209 72.3741 106.184 74.547 106.965C75.8028 106.65 77.0137 106.279 78.2336 105.845C82.0767 104.353 85.9074 101.563 88.1905 98.0757C89.8576 96.898 90.5843 91.7399 91.4593 89.6826L93.4127 92.7438C94.893 95.5887 95.4364 98.594 96.0952 101.702C95.8367 103.512 95.5804 105.097 94.9028 106.806C93.3607 106.99 91.3358 108.569 90.0525 109.446C89.2292 111.37 88.9743 113.022 88.7946 115.088C87.6547 113.54 86.5554 111.907 85.3195 110.438C83.4859 111.997 81.8744 113.661 80.2318 115.414C78.613 114.201 76.7716 113.014 75.3451 111.586C72.9356 113.077 71.0971 114.276 69.3498 116.55C68.972 114.477 68.3156 112.695 67.6755 110.7C64.9212 111.286 63.233 112.326 61.2623 114.313C60.7716 112.447 60.3849 109.4 58.8242 108.188C58.1107 108.03 57.6519 107.966 56.9873 108.386C56.5668 108.652 56.1267 108.973 55.7627 109.311Z"/>
	<path fill="#27292B" transform="scale(2.4 2.4)" d="M79.0615 96.9379Q79.1371 96.8992 79.2137 96.8628C80.2159 96.3845 80.3971 96.4858 81.3859 96.8315C83.258 96.1944 84.8829 93.2532 86.1187 91.7165C86.6383 91.0704 87.0609 91.0945 87.8375 91.0133C87.9297 92.359 87.3728 92.4697 86.9788 93.5715C86.8161 94.0263 86.8596 94.6058 86.793 95.0858C86.6054 96.438 85.7209 97.9049 84.8363 98.9149C82.1609 101.97 77.9335 103.743 73.9431 104.059C71.9859 103.092 66.1628 99.8826 64.8877 98.3875C64.1701 96.7268 62.7877 95.8299 62.617 93.8863Q63.0366 94.1243 63.4942 94.277C65.0588 94.783 67.7045 94.3632 69.121 93.6184C68.6657 94.2452 67.5094 95.2515 67.3284 95.923L67.5612 96.0553C68.52 95.7895 69.0465 95.5125 69.7323 94.7872L69.9261 94.7652C70.4597 94.8518 70.9727 94.9121 71.4535 95.1731C71.2085 95.8105 71.0454 96.286 71.1147 96.9731C71.1203 97.4018 71.1216 97.7565 71.2838 98.1605C71.8769 97.6969 71.9123 97.0591 72.6074 96.6556L73.2234 96.9879C73.7615 98.0335 73.8412 99.3412 74.8882 99.9652C76.1812 99.4029 76.1887 97.1725 77.8866 97.3041L78.5562 97.9499L79.0615 96.9379Z"/>
	<path fill="#47404A" transform="scale(2.4 2.4)" d="M76.9945 91.9715C77.0499 92.1534 77.2645 93.0223 77.3869 93.0841C78.5543 93.6734 78.9069 92.7064 79.7135 94.3331C78.9999 94.6213 78.3736 94.9106 77.7342 95.3488C77.468 94.9278 76.9327 94.6743 76.5149 94.4191C77.0636 93.744 76.9693 92.7999 76.9945 91.9715Z"/>
	<path fill="#47404A" transform="scale(2.4 2.4)" d="M93.4127 92.7438C93.8255 92.7729 94.0101 92.8621 94.3237 93.1297L94.9727 92.9875C94.9212 93.8171 97.418 97.322 96.9192 100.864C96.4051 100.196 96.7411 99.4148 96.1344 98.8615C96.1595 99.7389 96.3899 100.891 96.0952 101.702C95.4364 98.594 94.893 95.5887 93.4127 92.7438Z"/>
	<path fill="#3D3F3F" transform="scale(2.4 2.4)" d="M69.9261 94.7652C70.2487 94.4608 70.5733 94.1526 70.9165 93.8714C71.6634 93.2593 72.2987 93.4439 73.1758 93.5285L73.464 94.1684C72.4222 95.0055 71.9683 96.0174 71.1147 96.9731C71.0454 96.286 71.2085 95.8105 71.4535 95.1731C70.9727 94.9121 70.4597 94.8518 69.9261 94.7652Z"/>
	<path fill="#3D3F3F" transform="scale(2.4 2.4)" d="M77.7342 95.3488C78.3736 94.9106 78.9999 94.6213 79.7135 94.3331C80.0457 94.4799 80.4247 94.6975 80.774 94.7783C79.7784 95.1773 79.7406 95.6546 79.058 96.3882L78.5411 96.3863L77.7342 95.3488Z"/>
	<path fill="#5F61A5" transform="scale(2.4 2.4)" d="M71.1147 96.9731C71.9683 96.0174 72.4222 95.0055 73.464 94.1684C73.8328 95.0378 74.0322 95.8236 74.1667 96.7574L73.2234 96.9879L72.6074 96.6556C71.9123 97.0591 71.8769 97.6969 71.2838 98.1605C71.1216 97.7565 71.1203 97.4018 71.1147 96.9731Z"/>
	<path fill="#AD957A" transform="scale(2.4 2.4)" d="M76.5149 94.4191C76.9327 94.6743 77.468 94.9278 77.7342 95.3488L78.5411 96.3863C78.2264 96.5259 77.847 96.7236 77.5034 96.7558C76.8604 96.8161 76.6607 96.5081 76.2033 96.1126C76.2548 95.5484 76.4033 94.9753 76.5149 94.4191Z"/>
	<path fill="#766C65" transform="scale(2.4 2.4)" d="M76.2033 96.1126C76.6607 96.5081 76.8604 96.8161 77.5034 96.7558C77.847 96.7236 78.2264 96.5259 78.5411 96.3863L79.058 96.3882L79.0615 96.9379L78.5562 97.9499L77.8866 97.3041C76.1887 97.1725 76.1812 99.4029 74.8882 99.9652C73.8412 99.3412 73.7615 98.0335 73.2234 96.9879L74.1667 96.7574C74.4298 97.3454 74.6414 97.7105 75.1588 98.1025L75.607 98.0344C76.1237 97.476 76.1304 96.8317 76.2033 96.1126Z"/>
	<path fill="#83777B" transform="scale(2.4 2.4)" d="M98.9103 97.0873C98.4135 97.3371 98.0337 97.4624 97.4779 97.5009C96.9359 97.0338 96.8814 96.5911 96.6668 95.9259C97.4242 95.9666 98.2624 95.9099 98.866 96.4313L98.9103 97.0873Z"/>
	<path fill="#5F61A5" transform="scale(2.4 2.4)" d="M111.289 100.966C111.318 100.835 111.349 100.709 111.395 100.582C111.759 99.5736 114.066 96.5211 114.959 96.0965L116.197 96.5536C114.737 99.3563 113.161 102.265 110.951 104.56L110.355 104.299C111.145 103.264 110.942 102.181 111.289 100.966Z"/>
	<path fill="#AD957A" transform="scale(2.4 2.4)" d="M34.3742 97.7451C35.1287 97.4482 35.6225 97.4101 36.4178 97.4791C37.0663 98.2655 38.7005 99.8561 38.8011 100.836C39.1795 101.494 39.895 102.426 39.8509 103.198C39.4739 103.457 38.9864 103.726 38.6897 104.072C36.9313 102.533 35.5463 99.7478 34.3742 97.7451Z"/>
	<path fill="#3D3F3F" transform="scale(2.4 2.4)" d="M39.5886 99.0226L41.0531 98.6461L41.3449 99.6588C40.8645 101.027 40.9548 104.045 40.7017 104.521L39.8509 103.198C39.895 102.426 39.1795 101.494 38.8011 100.836C38.9313 100.151 39.2473 99.6186 39.5886 99.0226Z"/>
	<path fill="#3D3F3F" transform="scale(2.4 2.4)" d="M96.9192 100.864C97.901 101.3 98.8072 101.738 99.9111 101.681C99.607 102.938 99.0526 104.092 98.6958 105.332C98.0375 107.136 97.4087 108.921 96.9261 110.782C96.4554 111.883 95.9387 113.148 95.8696 114.357L94.9769 115.959C93.4732 116.474 92.6694 117.205 91.0956 116.499C91.5467 115.212 92.3539 114.055 92.8494 112.767C93.8409 110.988 94.3205 108.759 94.9028 106.806C95.5804 105.097 95.8367 103.512 96.0952 101.702C96.3899 100.891 96.1595 99.7389 96.1344 98.8615C96.7411 99.4148 96.4051 100.196 96.9192 100.864Z"/>
	<path fill="#83777B" transform="scale(2.4 2.4)" d="M41.3449 99.6588C44.6787 104.433 48.4513 107.425 52.9139 111.039C53.4652 111.697 53.6334 112.728 53.8651 113.543C48.393 113.959 44.2513 104.878 40.7017 104.521C40.9548 104.045 40.8645 101.027 41.3449 99.6588Z"/>
	<path fill="#83777B" transform="scale(2.4 2.4)" d="M96.9261 110.782C101.463 109.246 104.923 103.67 108.649 100.819L109.627 102.298C106.304 107.163 101.584 112.305 95.8696 114.357C95.9387 113.148 96.4554 111.883 96.9261 110.782Z"/>
	<path fill="#5F61A5" transform="scale(2.4 2.4)" d="M95.8696 114.357C101.584 112.305 106.304 107.163 109.627 102.298L110.355 104.299L110.951 104.56C108.3 107.173 98.8501 116.613 95.3107 116.382C95.2181 116.376 95.1318 116.36 95.0427 116.335L94.9769 115.959L95.8696 114.357Z"/>
	<path fill="#AD957A" transform="scale(2.4 2.4)" d="M38.6897 104.072C38.9864 103.726 39.4739 103.457 39.8509 103.198L40.7017 104.521C44.2513 104.878 48.393 113.959 53.8651 113.543C53.9943 114.552 54.0795 115.588 54.3883 116.561C54.251 116.637 54.0871 116.771 53.9294 116.758C53.0152 116.683 51.7245 115.526 50.9695 114.98C46.3639 111.648 42.5306 108.287 38.6897 104.072Z"/>
	<path fill="#27292B" transform="scale(2.4 2.4)" d="M68.3264 104.088C69.6275 103.737 73.5123 105.25 74.8549 105.88C75.8129 105.579 77.007 105.055 78.0095 105.144L78.3224 105.443L78.2336 105.845C77.0137 106.279 75.8028 106.65 74.547 106.965C72.3741 106.184 70.3419 105.209 68.3264 104.088Z"/>
	<path fill="#69686F" transform="scale(2.4 2.4)" d="M35.1119 107.882C35.2016 107.183 35.127 106.706 35.6644 106.211C36.8557 106.35 37.797 107.496 38.6548 108.301C37.5204 108.407 36.0244 108.771 34.9461 108.753L35.1119 107.882Z"/>
	<defs>
		<linearGradient id="gradient_16" gradientUnits="userSpaceOnUse" x1="109.40883" y1="113.04994" x2="127.5809" y2="117.408">
			<stop offset="0" stop-color="#595F6A"/>
			<stop offset="1" stop-color="#9C8DA2"/>
		</linearGradient>
	</defs>
	<path fill="url(#gradient_16)" transform="scale(2.4 2.4)" d="M113.26 115.908C114.308 115.957 114.465 116.398 115.498 115.903C116.505 113.461 110.723 110.767 110.344 108.552C110.839 107.934 113.842 107.285 114.777 106.982C116.278 112.365 126.579 123.901 130.589 128.447C124.865 124.169 119.123 119.996 113.26 115.908Z"/>
	<defs>
		<linearGradient id="gradient_17" gradientUnits="userSpaceOnUse" x1="34.362747" y1="118.31331" x2="28.427177" y2="115.11265">
			<stop offset="0" stop-color="#69686F"/>
			<stop offset="1" stop-color="#8C7D8C"/>
		</linearGradient>
	</defs>
	<path fill="url(#gradient_17)" transform="scale(2.4 2.4)" d="M34.9461 108.753C36.0244 108.771 37.5204 108.407 38.6548 108.301C39.2414 108.674 39.7248 108.944 39.9811 109.63L38.5089 111.186C38.3251 111.363 38.0578 111.562 37.9195 111.771C36.3235 113.223 34.8113 114.688 33.3782 116.302C33.8112 116.568 34.4207 116.298 34.5976 116.736C33.7115 117.324 32.77 117.737 32.5378 118.829C31.1571 119.968 21.4649 127.152 20.5377 127.54L20.3501 127.458C20.4293 126.199 33.5399 112.484 34.8965 108.89C34.9137 108.845 34.9296 108.799 34.9461 108.753Z"/>
	<path fill="#47404A" transform="scale(2.4 2.4)" d="M39.9811 109.63L40.3541 110.152C40.1564 110.811 40.0459 110.861 39.4891 111.264C39.1273 111.31 38.8459 111.369 38.5089 111.186L39.9811 109.63Z"/>
	<defs>
		<linearGradient id="gradient_18" gradientUnits="userSpaceOnUse" x1="35.661011" y1="113.41479" x2="35.369228" y2="116.28751">
			<stop offset="0" stop-color="#47404A"/>
			<stop offset="1" stop-color="#56505E"/>
		</linearGradient>
	</defs>
	<path fill="url(#gradient_18)" transform="scale(2.4 2.4)" d="M32.5378 118.829C32.77 117.737 33.7115 117.324 34.5976 116.736C34.4207 116.298 33.8112 116.568 33.3782 116.302C34.8113 114.688 36.3235 113.223 37.9195 111.771C37.7349 112.09 37.2404 112.746 37.2629 113.086L38.5436 112.778L38.6384 113.231L38.2664 113.573L38.7575 114.057C39.9076 113.865 41.728 113.122 42.7845 113.566C42.8188 113.581 42.8541 113.593 42.8881 113.608C42.9087 113.617 42.928 113.629 42.948 113.64C38.8089 114.57 36.0165 116.553 32.5378 118.829Z"/>
	<defs>
		<linearGradient id="gradient_19" gradientUnits="userSpaceOnUse" x1="74.995026" y1="112.37413" x2="73.831223" y2="119.84669">
			<stop offset="0" stop-color="#716852"/>
			<stop offset="1" stop-color="#83777B"/>
		</linearGradient>
	</defs>
	<path fill="url(#gradient_19)" transform="scale(2.4 2.4)" d="M57.2717 112.755C58.4976 113.736 60.2401 114.58 61.6742 115.227C68.7338 118.411 78.0495 118.822 85.3344 116.188C87.9422 115.246 90.2867 113.74 92.8494 112.767C92.3539 114.055 91.5467 115.212 91.0956 116.499L91.036 116.655L90.4751 116.288L89.9047 116.715C86.9848 118.915 74.3287 120.395 70.8083 119.832C68.5673 119.473 60.4671 116.7 59.0998 117.261L58.9949 117.45C58.1619 116.152 57.7512 114.225 57.2717 112.755Z"/>
	<path fill="#27292B" transform="scale(2.4 2.4)" d="M91.0956 116.499C92.6694 117.205 93.4732 116.474 94.9769 115.959L95.0427 116.335C94.2186 118.006 93.3159 119.744 93.6981 121.67C91.3442 126.466 87.6053 130.642 83.3021 133.794C85.3864 130.051 87.9054 126.421 90.1899 122.787C90.6979 121.582 90.8679 120.177 90.9045 118.881C91.0194 118.167 90.9993 117.381 91.036 116.655L91.0956 116.499Z"/>
	<defs>
		<linearGradient id="gradient_20" gradientUnits="userSpaceOnUse" x1="74.112762" y1="114.51033" x2="75.629219" y2="121.92242">
			<stop offset="0" stop-color="#A48B6E"/>
			<stop offset="1" stop-color="#5F61A5"/>
		</linearGradient>
	</defs>
	<path fill="url(#gradient_20)" transform="scale(2.4 2.4)" d="M58.9949 117.45L59.0998 117.261C60.4671 116.7 68.5673 119.473 70.8083 119.832C74.3287 120.395 86.9848 118.915 89.9047 116.715L90.4751 116.288L91.036 116.655C90.9993 117.381 91.0194 118.167 90.9045 118.881C86.4017 119.561 79.0617 122.612 74.6061 122.48C72.8598 122.428 70.8729 121.82 69.1479 121.501C65.4661 120.821 62.3661 120.002 58.951 118.455L58.9949 117.45Z"/>
	<path fill="#47404A" transform="scale(2.4 2.4)" d="M58.951 118.455C62.3661 120.002 65.4661 120.821 69.1479 121.501C70.8729 121.82 72.8598 122.428 74.6061 122.48C79.0617 122.612 86.4017 119.561 90.9045 118.881C90.8679 120.177 90.6979 121.582 90.1899 122.787C86.4588 123.485 83.1524 124.927 79.2897 125.017Q78.0772 127.588 77.237 130.304Q76.3968 133.02 75.9454 135.827C75.6356 137.746 75.8639 140.382 75.049 142.112L74.8056 142.147C74.418 140.989 74.641 139.704 74.4533 138.497C73.7739 134.129 72.7722 128.986 70.7385 125.019C68.1023 125.023 60.6016 122.901 60.0033 123.022C59.1395 121.551 58.8027 120.148 58.951 118.455Z"/>
</svg>
